<?xml version="1.0" encoding="UTF-8"?>
<svg xmlns="http://www.w3.org/2000/svg" xmlns:xlink="http://www.w3.org/1999/xlink" width="357.477pt" height="219.53pt" viewBox="0 0 357.477 219.53">
<defs>
<g>
<g id="glyph-0-0">
<path d="M 4.609375 -2.25 C 4.75 -2.25 4.890625 -2.484375 4.890625 -2.578125 C 4.890625 -2.65625 4.84375 -2.75 4.75 -2.75 L 0.84375 -2.75 C 0.734375 -2.75 0.59375 -2.5625 0.59375 -2.40625 C 0.59375 -2.328125 0.65625 -2.25 0.75 -2.25 Z M 4.609375 -2.25 "/>
</g>
<g id="glyph-0-1">
<path d="M 0.609375 -4.671875 C 0.609375 -4.453125 0.796875 -4.28125 1 -4.28125 C 1.171875 -4.28125 1.46875 -4.453125 1.46875 -4.671875 C 1.46875 -4.75 1.453125 -4.8125 1.4375 -4.890625 C 1.421875 -4.953125 1.359375 -5.046875 1.359375 -5.125 C 1.359375 -5.375 1.609375 -5.734375 2.34375 -5.734375 C 2.703125 -5.734375 3.203125 -5.484375 3.203125 -4.53125 C 3.203125 -3.890625 2.984375 -3.375 2.390625 -2.765625 L 1.65625 -2.046875 C 0.671875 -1.046875 0.515625 -0.5625 0.515625 0.015625 C 0.515625 0.015625 1.03125 0 1.34375 0 L 3.09375 0 C 3.40625 0 3.875 0.015625 3.875 0.015625 C 4 -0.515625 4.09375 -1.25 4.109375 -1.5625 C 4.046875 -1.609375 3.921875 -1.625 3.8125 -1.609375 C 3.65625 -0.890625 3.484375 -0.640625 3.125 -0.640625 L 1.34375 -0.640625 C 1.34375 -1.125 2.03125 -1.796875 2.078125 -1.859375 L 3.09375 -2.828125 C 3.65625 -3.375 4.09375 -3.8125 4.09375 -4.5625 C 4.09375 -5.640625 3.203125 -6.078125 2.40625 -6.078125 C 1.296875 -6.078125 0.609375 -5.265625 0.609375 -4.671875 Z M 0.609375 -4.671875 "/>
</g>
<g id="glyph-0-2">
<path d="M 5.609375 -4.28125 L 1.828125 -4.28125 C 1.359375 -4.28125 0.8125 -3.4375 0.609375 -2.84375 L 0.78125 -2.8125 C 1.078125 -3.375 1.421875 -3.59375 1.890625 -3.59375 L 2.046875 -3.59375 C 1.421875 -0.890625 0.90625 -0.71875 0.625 -0.65625 C 0.375 -0.609375 0.234375 -0.3125 0.21875 -0.21875 C 0.203125 -0.171875 0.203125 -0.15625 0.203125 -0.109375 C 0.203125 0.0625 0.34375 0.125 0.4375 0.125 C 1.34375 0.125 1.96875 -1.1875 2.53125 -3.59375 L 3.671875 -3.59375 C 3.390625 -2.453125 3.15625 -1.5 3.03125 -0.921875 C 2.984375 -0.703125 2.953125 -0.53125 2.953125 -0.40625 C 2.953125 -0.03125 3.140625 0.125 3.59375 0.125 C 4.03125 0.125 4.5625 -0.390625 4.84375 -0.703125 L 4.71875 -0.859375 C 4.28125 -0.484375 3.890625 -0.40625 3.78125 -0.40625 C 3.640625 -0.40625 3.578125 -0.5 3.578125 -0.671875 C 3.578125 -0.78125 3.59375 -0.90625 3.640625 -1.0625 C 3.953125 -2.4375 4.140625 -3.234375 4.25 -3.59375 L 4.90625 -3.59375 C 5.25 -3.59375 5.453125 -3.8125 5.6875 -4.15625 Z M 5.609375 -4.28125 "/>
</g>
<g id="glyph-0-3">
<path d="M 2.875 -1.21875 L 2.875 -4.671875 C 2.875 -5.28125 2.875 -5.875 2.90625 -6.015625 C 2.90625 -6.046875 2.875 -6.0625 2.84375 -6.0625 C 2.28125 -5.71875 1.765625 -5.46875 0.890625 -5.0625 C 0.890625 -4.9375 0.953125 -4.859375 1.03125 -4.796875 C 1.484375 -4.984375 1.71875 -5.046875 1.90625 -5.046875 C 2.0625 -5.046875 2.109375 -4.8125 2.109375 -4.46875 L 2.109375 -1.21875 C 2.109375 -0.390625 1.828125 -0.34375 1.140625 -0.3125 C 1.078125 -0.25 1.078125 -0.046875 1.140625 0.015625 C 1.625 0.015625 1.96875 0 2.515625 0 C 2.984375 0 3.234375 0.015625 3.734375 0.015625 C 3.796875 -0.046875 3.796875 -0.25 3.734375 -0.3125 C 3.046875 -0.34375 2.875 -0.390625 2.875 -1.21875 Z M 2.875 -1.21875 "/>
</g>
<g id="glyph-0-4">
<path d="M 1.046875 -4.28125 L 0.515625 -4.25 C 0.328125 -4.234375 0.265625 -4.15625 0.234375 -4.078125 C 0.234375 -4.046875 0.203125 -3.921875 0.203125 -3.90625 C 0.203125 -3.890625 0.234375 -3.890625 0.265625 -3.890625 L 0.953125 -3.890625 L 0.34375 -1.171875 C 0.265625 -0.84375 0.203125 -0.546875 0.203125 -0.359375 C 0.203125 0 0.390625 0.09375 0.703125 0.09375 C 1.140625 0.09375 1.796875 -0.3125 2.140625 -0.921875 C 2.109375 -1.0625 2.046875 -1.109375 1.921875 -1.109375 C 1.46875 -0.59375 1.28125 -0.5 1.125 -0.5 C 1.09375 -0.5 1 -0.515625 1 -0.640625 C 1 -0.734375 1.03125 -0.921875 1.109375 -1.265625 L 1.6875 -3.890625 L 2.671875 -3.890625 C 2.796875 -3.9375 2.875 -4.203125 2.765625 -4.28125 L 1.78125 -4.28125 L 1.890625 -4.71875 C 1.921875 -4.90625 2.015625 -5.203125 2.015625 -5.328125 C 2.015625 -5.5 1.9375 -5.59375 1.609375 -5.59375 C 1.25 -5.59375 1.265625 -5.140625 1.171875 -4.78125 Z M 1.046875 -4.28125 "/>
</g>
<g id="glyph-0-5">
<path d="M 1.75 1.75 C 1.640625 1.921875 1.453125 2.046875 1.3125 2.046875 C 1.171875 2.046875 1.109375 1.96875 1.0625 1.890625 C 0.984375 1.75 0.78125 1.5625 0.5625 1.5625 C 0.296875 1.5625 0.1875 1.75 0.1875 1.90625 C 0.1875 2.140625 0.4375 2.375 1.109375 2.375 C 1.53125 2.375 1.96875 2.171875 2.265625 1.75 C 2.546875 1.359375 2.765625 0.59375 3.15625 -1.296875 C 3.3125 -2.078125 3.484375 -2.875 3.625 -3.71875 L 3.65625 -3.890625 L 4.578125 -3.890625 C 4.671875 -3.890625 4.828125 -3.921875 4.84375 -4 C 4.84375 -4 4.890625 -4.21875 4.890625 -4.234375 C 4.890625 -4.25 4.875 -4.28125 4.828125 -4.28125 L 3.734375 -4.28125 L 3.84375 -4.84375 C 3.984375 -5.59375 4.109375 -6.046875 4.265625 -6.3125 C 4.421875 -6.578125 4.53125 -6.671875 4.671875 -6.671875 C 4.8125 -6.671875 4.828125 -6.578125 4.875 -6.390625 C 4.921875 -6.1875 5 -5.921875 5.3125 -5.921875 C 5.609375 -5.921875 5.671875 -6.15625 5.671875 -6.234375 C 5.671875 -6.625 5.34375 -6.953125 4.75 -6.953125 C 4.53125 -6.953125 4.265625 -6.84375 4.0625 -6.6875 C 3.734375 -6.4375 3.328125 -6.046875 2.953125 -4.28125 L 2.296875 -4.25 C 2.109375 -4.234375 2.03125 -4.15625 2.015625 -4.078125 C 2 -4.046875 1.96875 -3.921875 1.96875 -3.90625 C 1.96875 -3.890625 2 -3.890625 2.03125 -3.890625 L 2.859375 -3.890625 C 2.625 -2.75 2.578125 -2.15625 2.453125 -1.40625 C 2.296875 -0.453125 2.125 1.171875 1.75 1.75 Z M 1.75 1.75 "/>
</g>
<g id="glyph-0-6">
<path d="M 0.421875 -2.734375 C 0.421875 -0.53125 1.46875 1.03125 3.078125 1.859375 L 3.234375 1.578125 C 1.78125 0.625 1.25 -0.734375 1.25 -2.734375 C 1.25 -4.71875 1.78125 -6.046875 3.234375 -7.015625 L 3.078125 -7.28125 C 1.46875 -6.453125 0.421875 -4.90625 0.421875 -2.734375 Z M 0.421875 -2.734375 "/>
</g>
<g id="glyph-0-7">
<path d="M 3.125 -2.734375 C 3.125 -4.90625 2.078125 -6.453125 0.46875 -7.28125 L 0.3125 -7.015625 C 1.765625 -6.046875 2.296875 -4.71875 2.296875 -2.734375 C 2.296875 -0.734375 1.765625 0.625 0.3125 1.578125 L 0.46875 1.859375 C 2.078125 1.03125 3.125 -0.53125 3.125 -2.734375 Z M 3.125 -2.734375 "/>
</g>
<g id="glyph-0-8">
<path d="M 4.609375 -6.234375 C 4.09375 -6.3125 4.15625 -6.5625 3.265625 -6.5625 C 2.4375 -6.5625 1.34375 -5.984375 1.140625 -4.9375 C 1.109375 -4.8125 1.09375 -4.703125 1.09375 -4.59375 C 1.09375 -3.71875 1.875 -3.25 2.578125 -2.90625 C 3.03125 -2.671875 3.390625 -2.359375 3.390625 -1.75 C 3.390625 -1.640625 3.375 -1.515625 3.359375 -1.390625 C 3.203125 -0.578125 2.71875 -0.265625 1.984375 -0.265625 C 1.140625 -0.265625 0.640625 -0.671875 0.625 -1.671875 L 0.328125 -1.640625 C 0.296875 -0.890625 0.28125 -0.5625 0.203125 -0.046875 C 0.78125 -0.046875 1.03125 0.09375 1.828125 0.09375 C 2.9375 0.09375 4 -0.71875 4.203125 -1.734375 C 4.21875 -1.859375 4.234375 -2 4.234375 -2.109375 C 4.234375 -2.984375 3.546875 -3.4375 2.875 -3.75 C 2.546875 -3.890625 1.828125 -4.3125 1.828125 -5 C 1.828125 -5.0625 1.828125 -5.125 1.84375 -5.203125 C 1.96875 -5.8125 2.484375 -6.21875 3.109375 -6.21875 C 4.03125 -6.21875 4.15625 -5.625 4.21875 -4.96875 L 4.53125 -4.953125 C 4.53125 -5.4375 4.578125 -5.703125 4.609375 -6.234375 Z M 4.609375 -6.234375 "/>
</g>
<g id="glyph-1-0">
<path d="M 2 -0.84375 L 2 -3.265625 C 2 -3.6875 2.015625 -4.109375 2.03125 -4.203125 C 2.03125 -4.234375 2 -4.234375 1.984375 -4.234375 C 1.59375 -4 1.234375 -3.828125 0.625 -3.546875 C 0.625 -3.453125 0.65625 -3.390625 0.71875 -3.359375 C 1.03125 -3.484375 1.203125 -3.53125 1.328125 -3.53125 C 1.4375 -3.53125 1.46875 -3.359375 1.46875 -3.125 L 1.46875 -0.84375 C 1.46875 -0.265625 1.28125 -0.234375 0.796875 -0.21875 C 0.75 -0.171875 0.75 -0.03125 0.796875 0.015625 C 1.140625 0 1.375 0 1.765625 0 C 2.09375 0 2.265625 0 2.609375 0.015625 C 2.65625 -0.03125 2.65625 -0.171875 2.609375 -0.21875 C 2.125 -0.234375 2 -0.265625 2 -0.84375 Z M 2 -0.84375 "/>
</g>
<g id="glyph-1-1">
<path d="M 1.5 -4 C 1.796875 -4 2.078125 -3.828125 2.078125 -3.375 C 2.078125 -3.03125 1.671875 -2.5 0.984375 -2.390625 L 1.015625 -2.171875 C 1.140625 -2.1875 1.265625 -2.1875 1.359375 -2.1875 C 1.75 -2.1875 2.265625 -2.078125 2.265625 -1.296875 C 2.265625 -0.359375 1.640625 -0.171875 1.40625 -0.171875 C 1.046875 -0.171875 0.984375 -0.328125 0.90625 -0.453125 C 0.828125 -0.5625 0.734375 -0.640625 0.59375 -0.640625 C 0.453125 -0.640625 0.3125 -0.515625 0.3125 -0.390625 C 0.3125 -0.125 0.890625 0.0625 1.3125 0.0625 C 2.140625 0.0625 2.875 -0.46875 2.875 -1.390625 C 2.875 -2.140625 2.3125 -2.421875 1.890625 -2.484375 L 1.890625 -2.5 C 2.453125 -2.765625 2.625 -3.0625 2.625 -3.421875 C 2.625 -3.625 2.578125 -3.8125 2.40625 -3.984375 C 2.25 -4.125 2 -4.25 1.640625 -4.25 C 0.625 -4.25 0.328125 -3.578125 0.328125 -3.359375 C 0.328125 -3.25 0.390625 -3.109375 0.5625 -3.109375 C 0.8125 -3.109375 0.84375 -3.34375 0.84375 -3.484375 C 0.84375 -3.921875 1.3125 -4 1.5 -4 Z M 1.5 -4 "/>
</g>
<g id="glyph-1-2">
<path d="M 2.328125 -2.03125 C 2.109375 -1.875 1.875 -1.875 1.765625 -1.875 C 1.078125 -1.875 0.921875 -2.546875 0.921875 -2.890625 C 0.921875 -3.65625 1.21875 -4 1.5625 -4 C 2 -4 2.390625 -3.765625 2.390625 -2.578125 C 2.390625 -2.421875 2.375 -2.234375 2.328125 -2.03125 Z M 2.265625 -1.78125 C 2.078125 -1.140625 1.640625 -0.4375 0.71875 -0.09375 C 0.71875 -0.015625 0.75 0.046875 0.796875 0.078125 C 1.5 -0.125 1.9375 -0.421875 2.328125 -0.875 C 2.765625 -1.375 2.96875 -2 2.96875 -2.5625 C 2.96875 -3.96875 2.171875 -4.25 1.640625 -4.25 C 0.71875 -4.25 0.34375 -3.359375 0.34375 -2.765625 C 0.34375 -2.171875 0.671875 -1.625 1.609375 -1.625 C 1.796875 -1.625 2.0625 -1.6875 2.265625 -1.78125 Z M 2.265625 -1.78125 "/>
</g>
</g>
<clipPath id="clip-0">
<path clip-rule="nonzero" d="M 0 0 L 357.476562 0 L 357.476562 219.53125 L 0 219.53125 Z M 0 0 "/>
</clipPath>
<clipPath id="clip-1">
<path clip-rule="nonzero" d="M 23.074219 42.863281 L 317 42.863281 L 317 196.453125 L 23.074219 196.453125 Z M 23.074219 42.863281 "/>
</clipPath>
<clipPath id="clip-2">
<path clip-rule="nonzero" d="M 23.074219 45 L 317 45 L 317 194 L 23.074219 194 Z M 23.074219 45 "/>
</clipPath>
<clipPath id="clip-3">
<path clip-rule="nonzero" d="M 23.074219 46 L 317 46 L 317 193 L 23.074219 193 Z M 23.074219 46 "/>
</clipPath>
</defs>
<g clip-path="url(#clip-0)">
<path fill-rule="nonzero" fill="rgb(95.292664%, 95.684814%, 95.684814%)" fill-opacity="1" d="M 0 211.558594 L 0 7.96875 C 0 3.566406 3.566406 -0.00390625 7.96875 -0.00390625 L 349.511719 -0.00390625 C 353.914062 -0.00390625 357.480469 3.566406 357.480469 7.96875 L 357.480469 211.558594 C 357.480469 215.960938 353.914062 219.53125 349.511719 219.53125 L 7.96875 219.53125 C 3.566406 219.53125 0 215.960938 0 211.558594 Z M 0 211.558594 "/>
</g>
<path fill="none" stroke-width="0.49814" stroke-linecap="butt" stroke-linejoin="miter" stroke="rgb(81.881714%, 82.273865%, 82.273865%)" stroke-opacity="1" stroke-miterlimit="10" d="M 14.599781 0.000875 L 14.599781 153.590719 M 78.588063 0.000875 L 78.588063 153.590719 M 206.560719 0.000875 L 206.560719 153.590719 M 270.545094 0.000875 L 270.545094 153.590719 " transform="matrix(1, 0, 0, -1, 23.076, 196.454)"/>
<path fill="none" stroke-width="0.49814" stroke-linecap="butt" stroke-linejoin="miter" stroke="rgb(81.881714%, 82.273865%, 82.273865%)" stroke-opacity="1" stroke-miterlimit="10" d="M -0.00178125 34.129781 L 295.33025 34.129781 M -0.00178125 119.461813 L 295.33025 119.461813 " transform="matrix(1, 0, 0, -1, 23.076, 196.454)"/>
<path fill="none" stroke-width="0.19925" stroke-linecap="butt" stroke-linejoin="miter" stroke="rgb(50%, 50%, 50%)" stroke-opacity="1" stroke-miterlimit="10" d="M 14.599781 74.668844 L 14.599781 78.92275 M 78.588063 74.668844 L 78.588063 78.92275 M 206.560719 74.668844 L 206.560719 78.92275 M 270.545094 74.668844 L 270.545094 78.92275 " transform="matrix(1, 0, 0, -1, 23.076, 196.454)"/>
<path fill="none" stroke-width="0.19925" stroke-linecap="butt" stroke-linejoin="miter" stroke="rgb(50%, 50%, 50%)" stroke-opacity="1" stroke-miterlimit="10" d="M 140.447438 34.129781 L 144.697438 34.129781 M 140.447438 119.461813 L 144.697438 119.461813 " transform="matrix(1, 0, 0, -1, 23.076, 196.454)"/>
<path fill="none" stroke-width="0.79701" stroke-linecap="butt" stroke-linejoin="miter" stroke="rgb(0%, 0%, 0%)" stroke-opacity="1" stroke-miterlimit="10" d="M -0.00178125 76.79775 L 292.740406 76.79775 " transform="matrix(1, 0, 0, -1, 23.076, 196.454)"/>
<path fill-rule="nonzero" fill="rgb(0%, 0%, 0%)" fill-opacity="1" d="M 318.40625 119.65625 L 314.261719 117.585938 L 315.816406 119.65625 L 314.261719 121.730469 "/>
<path fill="none" stroke-width="0.79701" stroke-linecap="butt" stroke-linejoin="miter" stroke="rgb(0%, 0%, 0%)" stroke-opacity="1" stroke-miterlimit="10" d="M 142.572438 0.000875 L 142.572438 151.000875 " transform="matrix(1, 0, 0, -1, 23.076, 196.454)"/>
<path fill-rule="nonzero" fill="rgb(0%, 0%, 0%)" fill-opacity="1" d="M 165.648438 42.863281 L 163.578125 47.007812 L 165.648438 45.453125 L 167.722656 47.007812 "/>
<g fill="rgb(28.234863%, 28.625488%, 28.625488%)" fill-opacity="1">
<use xlink:href="#glyph-0-0" x="29.675" y="131.698"/>
<use xlink:href="#glyph-0-1" x="35.154452" y="131.698"/>
<use xlink:href="#glyph-0-2" x="39.78708" y="131.698"/>
</g>
<g fill="rgb(28.234863%, 28.625488%, 28.625488%)" fill-opacity="1">
<use xlink:href="#glyph-0-0" x="95.978" y="129.894"/>
<use xlink:href="#glyph-0-2" x="101.457452" y="129.894"/>
</g>
<g fill="rgb(28.234863%, 28.625488%, 28.625488%)" fill-opacity="1">
<use xlink:href="#glyph-0-2" x="226.689" y="129.894"/>
</g>
<g fill="rgb(28.234863%, 28.625488%, 28.625488%)" fill-opacity="1">
<use xlink:href="#glyph-0-1" x="288.359" y="131.698"/>
<use xlink:href="#glyph-0-2" x="292.991628" y="131.698"/>
</g>
<g fill="rgb(28.234863%, 28.625488%, 28.625488%)" fill-opacity="1">
<use xlink:href="#glyph-0-0" x="149.574" y="165.342"/>
<use xlink:href="#glyph-0-3" x="155.053452" y="165.342"/>
</g>
<g fill="rgb(28.234863%, 28.625488%, 28.625488%)" fill-opacity="1">
<use xlink:href="#glyph-0-3" x="155.053" y="80.014"/>
</g>
<path fill="none" stroke-width="1.19553" stroke-linecap="butt" stroke-linejoin="miter" stroke="rgb(28.234863%, 28.625488%, 28.625488%)" stroke-opacity="1" stroke-dasharray="2.98883 2.98883" stroke-miterlimit="10" d="M 14.599781 119.461813 L 78.588063 119.461813 L 78.588063 34.129781 L 142.576344 34.129781 L 142.576344 119.461813 L 206.564625 119.461813 L 206.564625 34.129781 L 270.549 34.129781 " transform="matrix(1, 0, 0, -1, 23.076, 196.454)"/>
<g clip-path="url(#clip-1)">
<path fill="none" stroke-width="1.59404" stroke-linecap="butt" stroke-linejoin="miter" stroke="rgb(0%, 35.293579%, 58.036804%)" stroke-opacity="1" stroke-miterlimit="10" d="M 14.599781 76.79775 L 15.45525 79.079 L 16.310719 81.356344 L 17.170094 83.625875 L 18.025562 85.887594 L 18.881031 88.129781 L 19.7365 90.348531 L 20.591969 92.54775 L 21.447437 94.719625 L 22.302906 96.856344 L 23.158375 98.961813 L 24.01775 101.024313 L 24.873219 103.04775 L 25.728687 105.020406 L 26.584156 106.946188 L 27.439625 108.817281 L 28.295094 110.633688 L 29.150562 112.387594 L 30.009937 114.082906 L 30.865406 115.707906 L 31.720875 117.2665 L 32.576344 118.754781 L 33.431812 120.164938 L 34.287281 121.500875 L 35.14275 122.758688 L 36.002125 123.934469 L 36.857594 125.028219 L 37.713062 126.036031 L 38.568531 126.957906 L 39.424 127.789938 L 40.279469 128.528219 L 41.134937 129.180563 L 41.994312 129.739156 L 42.849781 130.204 L 43.70525 130.571188 L 44.560719 130.848531 L 45.416187 131.028219 L 46.271656 131.11025 L 47.127125 131.098531 L 47.9865 130.993063 L 48.841969 130.789938 L 49.697437 130.489156 L 50.552906 130.094625 L 51.408375 129.606344 L 52.263844 129.024313 L 53.119312 128.352438 L 53.978687 127.586813 L 54.834156 126.73525 L 55.689625 125.789938 L 56.545094 124.762594 L 57.400562 123.649313 L 58.256031 122.454 L 59.1115 121.176656 L 59.970875 119.821188 L 60.826344 118.387594 L 61.681812 116.883688 L 62.537281 115.309469 L 63.39275 113.664938 L 64.248219 111.957906 L 65.103688 110.184469 L 65.963063 108.356344 L 66.818531 106.469625 L 67.674 104.532125 L 68.529469 102.543844 L 69.384938 100.512594 L 70.240406 98.438375 L 71.095875 96.325094 L 71.95525 94.176656 L 72.810719 92.000875 L 73.666188 89.79775 L 74.521656 87.567281 L 75.377125 85.321188 L 76.232594 83.059469 L 77.088063 80.786031 L 77.947438 78.508688 L 78.802906 76.223531 L 79.658375 73.942281 L 80.513844 71.664938 L 81.369313 69.399313 L 82.224781 67.145406 L 83.08025 64.907125 L 83.939625 62.692281 L 84.795094 60.496969 L 85.650563 58.336813 L 86.506031 56.204 L 87.3615 54.11025 L 88.216969 52.059469 L 89.072438 50.04775 L 89.931813 48.086813 L 90.787281 46.17275 L 91.64275 44.313375 L 92.498219 42.512594 L 93.353688 40.774313 L 94.209156 39.098531 L 95.064625 37.489156 L 95.924 35.946188 L 96.779469 34.477438 L 97.634938 33.082906 L 98.490406 31.7665 L 99.345875 30.532125 L 100.201344 29.375875 L 101.056813 28.305563 L 101.912281 27.317281 L 102.771656 26.418844 L 103.627125 25.61025 L 104.482594 24.8915 L 105.338063 24.262594 L 106.193531 23.727438 L 107.049 23.289938 L 107.904469 22.942281 L 108.763844 22.692281 L 109.619313 22.536031 L 110.474781 22.473531 L 111.33025 22.512594 L 112.185719 22.6415 L 113.041188 22.871969 L 113.896656 23.192281 L 114.756031 23.61025 L 115.6115 24.121969 L 116.466969 24.727438 L 117.322438 25.42275 L 118.177906 26.207906 L 119.033375 27.086813 L 119.888844 28.051656 L 120.748219 29.098531 L 121.603688 30.23525 L 122.459156 31.450094 L 123.314625 32.746969 L 124.170094 34.121969 L 125.025563 35.571188 L 125.881031 37.094625 L 126.740406 38.688375 L 127.595875 40.348531 L 128.451344 42.075094 L 129.306813 43.86025 L 130.162281 45.704 L 131.01775 47.602438 L 131.873219 49.551656 L 132.732594 51.551656 L 133.588063 53.594625 L 134.443531 55.680563 L 135.299 57.801656 L 136.154469 59.954 L 137.009938 62.1415 L 137.865406 64.352438 L 138.724781 66.582906 L 139.58025 68.832906 L 140.435719 71.098531 L 141.291188 73.371969 L 142.146656 75.653219 L 143.002125 77.938375 L 143.857594 80.219625 L 144.716969 82.493063 L 145.572438 84.758688 L 146.427906 87.008688 L 147.283375 89.243063 L 148.138844 91.454 L 148.994313 93.637594 L 149.849781 95.793844 L 150.709156 97.914938 L 151.564625 99.996969 L 152.420094 102.039938 L 153.275563 104.039938 L 154.131031 105.989156 L 154.9865 107.887594 L 155.841969 109.731344 L 156.701344 111.520406 L 157.556813 113.243063 L 158.412281 114.903219 L 159.26775 116.496969 L 160.123219 118.020406 L 160.978688 119.469625 L 161.834156 120.844625 L 162.693531 122.1415 L 163.549 123.356344 L 164.404469 124.493063 L 165.259938 125.543844 L 166.115406 126.508688 L 166.970875 127.383688 L 167.826344 128.168844 L 168.685719 128.868063 L 169.541188 129.469625 L 170.396656 129.981344 L 171.252125 130.399313 L 172.107594 130.723531 L 172.963063 130.950094 L 173.818531 131.082906 L 174.674 131.118063 L 175.533375 131.059469 L 176.388844 130.903219 L 177.244313 130.649313 L 178.099781 130.305563 L 178.95525 129.864156 L 179.810719 129.329 L 180.666188 128.700094 L 181.525563 127.981344 L 182.381031 127.17275 L 183.2365 126.274313 L 184.091969 125.289938 L 184.947438 124.215719 L 185.802906 123.059469 L 186.658375 121.825094 L 187.51775 120.508688 L 188.373219 119.114156 L 189.228688 117.645406 L 190.084156 116.106344 L 190.939625 114.496969 L 191.795094 112.817281 L 192.650563 111.079 L 193.509938 109.278219 L 194.365406 107.418844 L 195.220875 105.508688 L 196.076344 103.543844 L 196.931813 101.536031 L 197.787281 99.481344 L 198.64275 97.387594 L 199.502125 95.254781 L 200.357594 93.094625 L 201.213063 90.903219 L 202.068531 88.684469 L 202.924 86.446188 L 203.779469 84.192281 L 204.634938 81.926656 L 205.494313 79.649313 L 206.349781 77.368063 L 207.20525 75.082906 L 208.060719 72.805563 L 208.916188 70.532125 L 209.771656 68.270406 L 210.627125 66.024313 L 211.4865 63.79775 L 212.341969 61.590719 L 213.197438 59.414938 L 214.052906 57.2665 L 214.908375 55.153219 L 215.763844 53.079 L 216.619313 51.04775 L 217.478688 49.059469 L 218.334156 47.121969 L 219.189625 45.23525 L 220.045094 43.407125 L 220.900563 41.637594 L 221.756031 39.926656 L 222.6115 38.282125 L 223.470875 36.707906 L 224.326344 35.204 L 225.181813 33.770406 L 226.037281 32.414938 L 226.89275 31.1415 L 227.748219 29.942281 L 228.603688 28.829 L 229.463063 27.801656 L 230.318531 26.86025 L 231.174 26.004781 L 232.029469 25.239156 L 232.884938 24.567281 L 233.740406 23.98525 L 234.595875 23.496969 L 235.45525 23.102438 L 236.310719 22.805563 L 237.166188 22.602438 L 238.021656 22.493063 L 238.877125 22.481344 L 239.732594 22.563375 L 240.588063 22.743063 L 241.447438 23.020406 L 242.302906 23.3915 L 243.158375 23.852438 L 244.013844 24.411031 L 244.869313 25.063375 L 245.724781 25.805563 L 246.58025 26.637594 L 247.439625 27.555563 L 248.295094 28.563375 L 249.150563 29.657125 L 250.006031 30.832906 L 250.8615 32.090719 L 251.716969 33.426656 L 252.572438 34.836813 L 253.431813 36.325094 L 254.287281 37.883688 L 255.14275 39.508688 L 255.998219 41.204 L 256.853687 42.957906 L 257.709156 44.774313 L 258.564625 46.645406 L 259.420094 48.571188 L 260.279469 50.54775 L 261.134937 52.567281 L 261.990406 54.629781 L 262.845875 56.73525 L 263.701344 58.871969 L 264.556812 61.043844 L 265.412281 63.243063 L 266.271656 65.465719 L 267.127125 67.707906 L 267.982594 69.965719 L 268.838062 72.23525 L 269.693531 74.512594 L 270.549 76.79775 " transform="matrix(1, 0, 0, -1, 23.076, 196.454)"/>
</g>
<g clip-path="url(#clip-2)">
<path fill="none" stroke-width="1.59404" stroke-linecap="butt" stroke-linejoin="miter" stroke="rgb(90.194702%, 0%, 0%)" stroke-opacity="1" stroke-miterlimit="10" d="M 14.599781 76.79775 L 15.45525 81.356344 L 16.310719 85.875875 L 17.170094 90.313375 L 18.025562 94.637594 L 18.881031 98.801656 L 19.7365 102.778219 L 20.591969 106.536031 L 21.447437 110.039938 L 22.302906 113.270406 L 23.158375 116.204 L 24.01775 118.829 L 24.873219 121.121969 L 25.728687 123.086813 L 26.584156 124.711813 L 27.439625 126.004781 L 28.295094 126.965719 L 29.150562 127.606344 L 30.009937 127.946188 L 30.865406 127.996969 L 31.720875 127.786031 L 32.576344 127.336813 L 33.431812 126.676656 L 34.287281 125.836813 L 35.14275 124.848531 L 36.002125 123.746969 L 36.857594 122.563375 L 37.713062 121.332906 L 38.568531 120.090719 L 39.424 118.871969 L 40.279469 117.704 L 41.134937 116.614156 L 41.994312 115.633688 L 42.849781 114.782125 L 43.70525 114.079 L 44.560719 113.54775 L 45.416187 113.192281 L 46.271656 113.024313 L 47.127125 113.04775 L 47.9865 113.262594 L 48.841969 113.664938 L 49.697437 114.239156 L 50.552906 114.981344 L 51.408375 115.868063 L 52.263844 116.875875 L 53.119312 117.989156 L 53.978687 119.17275 L 54.834156 120.403219 L 55.689625 121.6415 L 56.545094 122.864156 L 57.400562 124.028219 L 58.256031 125.106344 L 59.1115 126.059469 L 59.970875 126.86025 L 60.826344 127.469625 L 61.681812 127.864156 L 62.537281 128.012594 L 63.39275 127.887594 L 64.248219 127.477438 L 65.103688 126.754781 L 65.963063 125.711813 L 66.818531 124.336813 L 67.674 122.625875 L 68.529469 120.579 L 69.384938 118.200094 L 70.240406 115.500875 L 71.095875 112.489156 L 71.95525 109.188375 L 72.810719 105.618063 L 73.666188 101.801656 L 74.521656 97.778219 L 75.377125 93.567281 L 76.232594 89.211813 L 77.088063 84.750875 L 77.947438 80.215719 L 78.802906 75.653219 L 79.658375 71.102438 L 80.513844 66.598531 L 81.369313 62.184469 L 82.224781 57.899313 L 83.08025 53.778219 L 83.939625 49.852438 L 84.795094 46.157125 L 85.650563 42.719625 L 86.506031 39.559469 L 87.3615 36.700094 L 88.216969 34.161031 L 89.072438 31.946188 L 89.931813 30.067281 L 90.787281 28.524313 L 91.64275 27.317281 L 92.498219 26.438375 L 93.353688 25.871969 L 94.209156 25.606344 L 95.064625 25.621969 L 95.924 25.895406 L 96.779469 26.403219 L 97.634938 27.11025 L 98.490406 27.989156 L 99.345875 29.012594 L 100.201344 30.137594 L 101.056813 31.332906 L 101.912281 32.567281 L 102.771656 33.809469 L 103.627125 35.020406 L 104.482594 36.168844 L 105.338063 37.23525 L 106.193531 38.184469 L 107.049 39.000875 L 107.904469 39.661031 L 108.763844 40.153219 L 109.619313 40.461813 L 110.474781 40.579 L 111.33025 40.508688 L 112.185719 40.246969 L 113.041188 39.801656 L 113.896656 39.180563 L 114.756031 38.403219 L 115.6115 37.48525 L 116.466969 36.446188 L 117.322438 35.313375 L 118.177906 34.114156 L 119.033375 32.879781 L 119.888844 31.6415 L 120.748219 30.430563 L 121.603688 29.282125 L 122.459156 28.23525 L 123.314625 27.317281 L 124.170094 26.559469 L 125.025563 26.000875 L 125.881031 25.668844 L 126.740406 25.586813 L 127.595875 25.778219 L 128.451344 26.2665 L 129.306813 27.067281 L 130.162281 28.192281 L 131.01775 29.649313 L 131.873219 31.446188 L 132.732594 33.575094 L 133.588063 36.036031 L 134.443531 38.817281 L 135.299 41.903219 L 136.154469 45.274313 L 137.009938 48.907125 L 137.865406 52.778219 L 138.724781 56.852438 L 139.58025 61.098531 L 140.435719 65.48525 L 141.291188 69.969625 L 142.146656 74.512594 L 143.002125 79.079 L 143.857594 83.621969 L 144.716969 88.106344 L 145.572438 92.493063 L 146.427906 96.739156 L 147.283375 100.817281 L 148.138844 104.684469 L 148.994313 108.321188 L 149.849781 111.692281 L 150.709156 114.774313 L 151.564625 117.555563 L 152.420094 120.0165 L 153.275563 122.145406 L 154.131031 123.942281 L 154.9865 125.399313 L 155.841969 126.524313 L 156.701344 127.325094 L 157.556813 127.813375 L 158.412281 128.008688 L 159.26775 127.92275 L 160.123219 127.590719 L 160.978688 127.032125 L 161.834156 126.278219 L 162.693531 125.356344 L 163.549 124.309469 L 164.404469 123.161031 L 165.259938 121.950094 L 166.115406 120.711813 L 166.970875 119.477438 L 167.826344 118.278219 L 168.685719 117.145406 L 169.541188 116.106344 L 170.396656 115.188375 L 171.252125 114.411031 L 172.107594 113.789938 L 172.963063 113.344625 L 173.818531 113.082906 L 174.674 113.012594 L 175.533375 113.133688 L 176.388844 113.442281 L 177.244313 113.930563 L 178.099781 114.590719 L 178.95525 115.407125 L 179.810719 116.356344 L 180.666188 117.42275 L 181.525563 118.575094 L 182.381031 119.786031 L 183.2365 121.024313 L 184.091969 122.258688 L 184.947438 123.454 L 185.802906 124.582906 L 186.658375 125.602438 L 187.51775 126.481344 L 188.373219 127.188375 L 189.228688 127.696188 L 190.084156 127.969625 L 190.939625 127.98525 L 191.795094 127.719625 L 192.650563 127.157125 L 193.509938 126.274313 L 194.365406 125.067281 L 195.220875 123.524313 L 196.076344 121.645406 L 196.931813 119.430563 L 197.787281 116.8915 L 198.64275 114.032125 L 199.502125 110.875875 L 200.357594 107.434469 L 201.213063 103.739156 L 202.068531 99.813375 L 202.924 95.692281 L 203.779469 91.407125 L 204.634938 86.993063 L 205.494313 82.489156 L 206.349781 77.938375 L 207.20525 73.375875 L 208.060719 68.840719 L 208.916188 64.379781 L 209.771656 60.024313 L 210.627125 55.817281 L 211.4865 51.789938 L 212.341969 47.973531 L 213.197438 44.403219 L 214.052906 41.102438 L 214.908375 38.090719 L 215.763844 35.3915 L 216.619313 33.012594 L 217.478688 30.965719 L 218.334156 29.254781 L 219.189625 27.879781 L 220.045094 26.836813 L 220.900563 26.114156 L 221.756031 25.704 L 222.6115 25.582906 L 223.470875 25.727438 L 224.326344 26.121969 L 225.181813 26.731344 L 226.037281 27.532125 L 226.89275 28.48525 L 227.748219 29.563375 L 228.603688 30.727438 L 229.463063 31.950094 L 230.318531 33.188375 L 231.174 34.418844 L 232.029469 35.602438 L 232.884938 36.715719 L 233.740406 37.727438 L 234.595875 38.61025 L 235.45525 39.352438 L 236.310719 39.930563 L 237.166188 40.329 L 238.021656 40.543844 L 238.877125 40.567281 L 239.732594 40.399313 L 240.588063 40.04775 L 241.447438 39.512594 L 242.302906 38.813375 L 243.158375 37.961813 L 244.013844 36.977438 L 244.869313 35.8915 L 245.724781 34.719625 L 246.58025 33.500875 L 247.439625 32.258688 L 248.295094 31.028219 L 249.150563 29.848531 L 250.006031 28.743063 L 250.8615 27.754781 L 251.716969 26.914938 L 252.572438 26.254781 L 253.431813 25.805563 L 254.287281 25.594625 L 255.14275 25.645406 L 255.998219 25.98525 L 256.853687 26.625875 L 257.709156 27.586813 L 258.564625 28.879781 L 259.420094 30.504781 L 260.279469 32.469625 L 261.134937 34.7665 L 261.990406 37.387594 L 262.845875 40.321188 L 263.701344 43.551656 L 264.556812 47.059469 L 265.412281 50.813375 L 266.271656 54.789938 L 267.127125 58.957906 L 267.982594 63.278219 L 268.838062 67.715719 L 269.693531 72.23525 L 270.549 76.793844 " transform="matrix(1, 0, 0, -1, 23.076, 196.454)"/>
</g>
<g clip-path="url(#clip-3)">
<path fill="none" stroke-width="1.59404" stroke-linecap="butt" stroke-linejoin="miter" stroke="rgb(90.979004%, 47.059631%, 27.450562%)" stroke-opacity="1" stroke-miterlimit="10" d="M 14.599781 76.79775 L 15.45525 88.102438 L 16.310719 98.758688 L 17.170094 108.184469 L 18.025562 115.92275 L 18.881031 121.680563 L 19.7365 125.36025 L 20.591969 127.059469 L 21.447437 127.036031 L 22.302906 125.692281 L 23.158375 123.504781 L 24.01775 120.969625 L 24.873219 118.54775 L 25.728687 116.606344 L 26.584156 115.395406 L 27.439625 115.020406 L 28.295094 115.446188 L 29.150562 116.5165 L 30.009937 118.000875 L 30.865406 119.61025 L 31.720875 121.071188 L 32.576344 122.153219 L 33.431812 122.704 L 34.287281 122.661031 L 35.14275 122.067281 L 36.002125 121.055563 L 36.857594 119.817281 L 37.713062 118.563375 L 38.568531 117.5165 L 39.424 116.840719 L 40.279469 116.6415 L 41.134937 116.934469 L 41.994312 117.661031 L 42.849781 118.688375 L 43.70525 119.836813 L 44.560719 120.903219 L 45.416187 121.707906 L 46.271656 122.118063 L 47.127125 122.059469 L 47.9865 121.539938 L 48.841969 120.653219 L 49.697437 119.54775 L 50.552906 118.414938 L 51.408375 117.446188 L 52.263844 116.817281 L 53.119312 116.6415 L 53.978687 116.969625 L 54.834156 117.750875 L 55.689625 118.868063 L 56.545094 120.133688 L 57.400562 121.340719 L 58.256031 122.262594 L 59.1115 122.723531 L 59.970875 122.618063 L 60.826344 121.930563 L 61.681812 120.73525 L 62.537281 119.211813 L 63.39275 117.606344 L 64.248219 116.200094 L 65.103688 115.270406 L 65.963063 115.036031 L 66.818531 115.621969 L 67.674 117.032125 L 68.529469 119.121969 L 69.384938 121.61025 L 70.240406 124.102438 L 71.095875 126.125875 L 71.95525 127.180563 L 72.810719 126.805563 L 73.666188 124.633688 L 74.521656 120.434469 L 75.377125 114.164938 L 76.232594 105.969625 L 77.088063 96.188375 L 77.947438 85.309469 L 78.802906 73.942281 L 79.658375 62.743063 L 80.513844 52.340719 L 81.369313 43.301656 L 82.224781 36.039938 L 83.08025 30.79775 L 83.939625 27.629781 L 84.795094 26.3915 L 85.650563 26.786031 L 86.506031 28.387594 L 87.3615 30.707906 L 88.216969 33.254781 L 89.072438 35.586813 L 89.931813 37.364156 L 90.787281 38.368063 L 91.64275 38.536031 L 92.498219 37.930563 L 93.353688 36.731344 L 94.209156 35.192281 L 95.064625 33.594625 L 95.924 32.207906 L 96.779469 31.246969 L 97.634938 30.844625 L 98.490406 31.032125 L 99.345875 31.743063 L 100.201344 32.832906 L 101.056813 34.098531 L 101.912281 35.317281 L 102.771656 36.286031 L 103.627125 36.848531 L 104.482594 36.92275 L 105.338063 36.512594 L 106.193531 35.696188 L 107.049 34.618063 L 107.904469 33.473531 L 108.763844 32.457906 L 109.619313 31.739156 L 110.474781 31.446188 L 111.33025 31.621969 L 112.185719 32.243063 L 113.041188 33.200094 L 113.896656 34.332906 L 114.756031 35.442281 L 115.6115 36.340719 L 116.466969 36.864156 L 117.322438 36.914938 L 118.177906 36.469625 L 119.033375 35.586813 L 119.888844 34.414938 L 120.748219 33.1415 L 121.603688 31.989156 L 122.459156 31.164938 L 123.314625 30.836813 L 124.170094 31.090719 L 125.025563 31.918844 L 125.881031 33.215719 L 126.740406 34.786031 L 127.595875 36.368063 L 128.451344 37.680563 L 129.306813 38.454 L 130.162281 38.489156 L 131.01775 37.692281 L 131.873219 36.094625 L 132.732594 33.871969 L 133.588063 31.340719 L 134.443531 28.918844 L 135.299 27.090719 L 136.154469 26.352438 L 137.009938 27.149313 L 137.865406 29.813375 L 138.724781 34.532125 L 139.58025 41.305563 L 140.435719 49.934469 L 141.291188 60.043844 L 142.146656 71.102438 L 143.002125 82.489156 L 143.857594 93.54775 L 144.716969 103.657125 L 145.572438 112.286031 L 146.427906 119.059469 L 147.283375 123.778219 L 148.138844 126.446188 L 148.994313 127.239156 L 149.849781 126.500875 L 150.709156 124.67275 L 151.564625 122.250875 L 152.420094 119.719625 L 153.275563 117.500875 L 154.131031 115.899313 L 154.9865 115.102438 L 155.841969 115.137594 L 156.701344 115.914938 L 157.556813 117.223531 L 158.412281 118.805563 L 159.26775 120.375875 L 160.123219 121.67275 L 160.978688 122.500875 L 161.834156 122.754781 L 162.693531 122.426656 L 163.549 121.602438 L 164.404469 120.450094 L 165.259938 119.176656 L 166.115406 118.004781 L 166.970875 117.125875 L 167.826344 116.676656 L 168.685719 116.727438 L 169.541188 117.250875 L 170.396656 118.149313 L 171.252125 119.258688 L 172.107594 120.3915 L 172.963063 121.348531 L 173.818531 121.969625 L 174.674 122.145406 L 175.533375 121.852438 L 176.388844 121.137594 L 177.244313 120.118063 L 178.099781 118.973531 L 178.95525 117.895406 L 179.810719 117.079 L 180.666188 116.668844 L 181.525563 116.743063 L 182.381031 117.309469 L 183.2365 118.278219 L 184.091969 119.496969 L 184.947438 120.758688 L 185.802906 121.848531 L 186.658375 122.559469 L 187.51775 122.746969 L 188.373219 122.344625 L 189.228688 121.383688 L 190.084156 120.000875 L 190.939625 118.399313 L 191.795094 116.86025 L 192.650563 115.661031 L 193.509938 115.055563 L 194.365406 115.223531 L 195.220875 116.231344 L 196.076344 118.004781 L 196.931813 120.336813 L 197.787281 122.883688 L 198.64275 125.204 L 199.502125 126.805563 L 200.357594 127.200094 L 201.213063 125.961813 L 202.068531 122.793844 L 202.924 117.555563 L 203.779469 110.289938 L 204.634938 101.250875 L 205.494313 90.852438 L 206.349781 79.649313 L 207.20525 68.282125 L 208.060719 57.403219 L 208.916188 47.621969 L 209.771656 39.430563 L 210.627125 33.157125 L 211.4865 28.957906 L 212.341969 26.786031 L 213.197438 26.411031 L 214.052906 27.465719 L 214.908375 29.489156 L 215.763844 31.981344 L 216.619313 34.469625 L 217.478688 36.559469 L 218.334156 37.969625 L 219.189625 38.555563 L 220.045094 38.321188 L 220.900563 37.3915 L 221.756031 35.98525 L 222.6115 34.383688 L 223.470875 32.86025 L 224.326344 31.664938 L 225.181813 30.973531 L 226.037281 30.868063 L 226.89275 31.329 L 227.748219 32.254781 L 228.603688 33.457906 L 229.463063 34.727438 L 230.318531 35.840719 L 231.174 36.625875 L 232.029469 36.950094 L 232.884938 36.774313 L 233.740406 36.145406 L 234.595875 35.176656 L 235.45525 34.043844 L 236.310719 32.938375 L 237.166188 32.051656 L 238.021656 31.536031 L 238.877125 31.473531 L 239.732594 31.883688 L 240.588063 32.688375 L 241.447438 33.754781 L 242.302906 34.903219 L 243.158375 35.930563 L 244.013844 36.657125 L 244.869313 36.954 L 245.724781 36.750875 L 246.58025 36.075094 L 247.439625 35.028219 L 248.295094 33.778219 L 249.150563 32.536031 L 250.006031 31.524313 L 250.8615 30.934469 L 251.716969 30.8915 L 252.572438 31.438375 L 253.431813 32.520406 L 254.287281 33.981344 L 255.14275 35.594625 L 255.998219 37.075094 L 256.853687 38.149313 L 257.709156 38.571188 L 258.564625 38.196188 L 259.420094 36.98525 L 260.279469 35.043844 L 261.134937 32.621969 L 261.990406 30.086813 L 262.845875 27.899313 L 263.701344 26.555563 L 264.556812 26.536031 L 265.412281 28.231344 L 266.271656 31.911031 L 267.127125 37.668844 L 267.982594 45.407125 L 268.838062 54.832906 L 269.693531 65.489156 L 270.549 76.793844 " transform="matrix(1, 0, 0, -1, 23.076, 196.454)"/>
</g>
<g fill="rgb(0%, 0%, 0%)" fill-opacity="1">
<use xlink:href="#glyph-0-4" x="328.145" y="122.404"/>
</g>
<g fill="rgb(0%, 0%, 0%)" fill-opacity="1">
<use xlink:href="#glyph-0-5" x="169.482" y="33.586"/>
</g>
<g fill="rgb(0%, 0%, 0%)" fill-opacity="1">
<use xlink:href="#glyph-0-6" x="175.349995" y="33.586"/>
<use xlink:href="#glyph-0-4" x="178.896695" y="33.586"/>
</g>
<g fill="rgb(0%, 0%, 0%)" fill-opacity="1">
<use xlink:href="#glyph-0-7" x="181.915375" y="33.586"/>
</g>
<path fill-rule="nonzero" fill="rgb(95.292664%, 95.684814%, 95.684814%)" fill-opacity="0.85" stroke-width="0.3985" stroke-linecap="butt" stroke-linejoin="miter" stroke="rgb(28.234863%, 28.625488%, 28.625488%)" stroke-opacity="1" stroke-miterlimit="10" d="M 247.634938 98.446188 L 292.177906 98.446188 L 292.177906 151.856344 L 247.634938 151.856344 Z M 247.634938 98.446188 " transform="matrix(1, 0, 0, -1, 23.076, 196.454)"/>
<path fill="none" stroke-width="1.19553" stroke-linecap="butt" stroke-linejoin="miter" stroke="rgb(28.234863%, 28.625488%, 28.625488%)" stroke-opacity="1" stroke-dasharray="2.98883 2.98883" stroke-miterlimit="10" d="M 0.0001875 -0.0010625 L 17.008 -0.0010625 " transform="matrix(1, 0, 0, -1, 274.492, 53.038)"/>
<g fill="rgb(0%, 0%, 0%)" fill-opacity="1">
<use xlink:href="#glyph-0-5" x="294.29" y="55.857"/>
</g>
<g fill="rgb(0%, 0%, 0%)" fill-opacity="1">
<use xlink:href="#glyph-0-6" x="300.157995" y="55.857"/>
<use xlink:href="#glyph-0-4" x="303.704695" y="55.857"/>
</g>
<g fill="rgb(0%, 0%, 0%)" fill-opacity="1">
<use xlink:href="#glyph-0-7" x="306.723375" y="55.857"/>
</g>
<path fill="none" stroke-width="1.59404" stroke-linecap="butt" stroke-linejoin="miter" stroke="rgb(0%, 35.293579%, 58.036804%)" stroke-opacity="1" stroke-miterlimit="10" d="M 0.0001875 -0.00021875 L 17.008 -0.00021875 " transform="matrix(1, 0, 0, -1, 274.492, 65.574)"/>
<g fill="rgb(0%, 0%, 0%)" fill-opacity="1">
<use xlink:href="#glyph-0-8" x="294.29" y="68.033"/>
</g>
<g fill="rgb(0%, 0%, 0%)" fill-opacity="1">
<use xlink:href="#glyph-1-0" x="298.504" y="70.126"/>
</g>
<path fill="none" stroke-width="1.59404" stroke-linecap="butt" stroke-linejoin="miter" stroke="rgb(90.194702%, 0%, 0%)" stroke-opacity="1" stroke-miterlimit="10" d="M 0.0001875 0.001 L 17.008 0.001 " transform="matrix(1, 0, 0, -1, 274.492, 77.751)"/>
<g fill="rgb(0%, 0%, 0%)" fill-opacity="1">
<use xlink:href="#glyph-0-8" x="294.29" y="80.21"/>
</g>
<g fill="rgb(0%, 0%, 0%)" fill-opacity="1">
<use xlink:href="#glyph-1-1" x="298.504" y="82.302"/>
</g>
<path fill="none" stroke-width="1.59404" stroke-linecap="butt" stroke-linejoin="miter" stroke="rgb(90.979004%, 47.059631%, 27.450562%)" stroke-opacity="1" stroke-miterlimit="10" d="M 0.0001875 0.00121875 L 17.008 0.00121875 " transform="matrix(1, 0, 0, -1, 274.492, 89.927)"/>
<g fill="rgb(0%, 0%, 0%)" fill-opacity="1">
<use xlink:href="#glyph-0-8" x="294.29" y="92.387"/>
</g>
<g fill="rgb(0%, 0%, 0%)" fill-opacity="1">
<use xlink:href="#glyph-1-2" x="298.504" y="94.479"/>
</g>
</svg>
