<?xml version="1.0" encoding="UTF-8"?>
<svg xmlns="http://www.w3.org/2000/svg" xmlns:xlink="http://www.w3.org/1999/xlink" width="457.48pt" height="138.262pt" viewBox="0 0 457.48 138.262">
<defs>
<g>
<g id="glyph-0-0">
<path d="M 4.609375 -2.25 C 4.75 -2.25 4.890625 -2.484375 4.890625 -2.578125 C 4.890625 -2.65625 4.84375 -2.75 4.75 -2.75 L 0.84375 -2.75 C 0.734375 -2.75 0.59375 -2.5625 0.59375 -2.40625 C 0.59375 -2.328125 0.65625 -2.25 0.75 -2.25 Z M 4.609375 -2.25 "/>
</g>
<g id="glyph-0-1">
<path d="M 0.609375 -4.671875 C 0.609375 -4.453125 0.796875 -4.28125 1 -4.28125 C 1.171875 -4.28125 1.46875 -4.453125 1.46875 -4.671875 C 1.46875 -4.75 1.453125 -4.8125 1.4375 -4.890625 C 1.421875 -4.953125 1.359375 -5.046875 1.359375 -5.125 C 1.359375 -5.375 1.609375 -5.734375 2.34375 -5.734375 C 2.703125 -5.734375 3.203125 -5.484375 3.203125 -4.53125 C 3.203125 -3.890625 2.984375 -3.375 2.390625 -2.765625 L 1.65625 -2.046875 C 0.671875 -1.046875 0.515625 -0.5625 0.515625 0.015625 C 0.515625 0.015625 1.03125 0 1.34375 0 L 3.09375 0 C 3.40625 0 3.875 0.015625 3.875 0.015625 C 4 -0.515625 4.09375 -1.25 4.109375 -1.5625 C 4.046875 -1.609375 3.921875 -1.625 3.8125 -1.609375 C 3.65625 -0.890625 3.484375 -0.640625 3.125 -0.640625 L 1.34375 -0.640625 C 1.34375 -1.125 2.03125 -1.796875 2.078125 -1.859375 L 3.09375 -2.828125 C 3.65625 -3.375 4.09375 -3.8125 4.09375 -4.5625 C 4.09375 -5.640625 3.203125 -6.078125 2.40625 -6.078125 C 1.296875 -6.078125 0.609375 -5.265625 0.609375 -4.671875 Z M 0.609375 -4.671875 "/>
</g>
<g id="glyph-0-2">
<path d="M 2.875 -1.21875 L 2.875 -4.671875 C 2.875 -5.28125 2.875 -5.875 2.90625 -6.015625 C 2.90625 -6.046875 2.875 -6.0625 2.84375 -6.0625 C 2.28125 -5.71875 1.765625 -5.46875 0.890625 -5.0625 C 0.890625 -4.9375 0.953125 -4.859375 1.03125 -4.796875 C 1.484375 -4.984375 1.71875 -5.046875 1.90625 -5.046875 C 2.0625 -5.046875 2.109375 -4.8125 2.109375 -4.46875 L 2.109375 -1.21875 C 2.109375 -0.390625 1.828125 -0.34375 1.140625 -0.3125 C 1.078125 -0.25 1.078125 -0.046875 1.140625 0.015625 C 1.625 0.015625 1.96875 0 2.515625 0 C 2.984375 0 3.234375 0.015625 3.734375 0.015625 C 3.796875 -0.046875 3.796875 -0.25 3.734375 -0.3125 C 3.046875 -0.34375 2.875 -0.390625 2.875 -1.21875 Z M 2.875 -1.21875 "/>
</g>
<g id="glyph-0-3">
<path d="M 2.703125 -5.046875 L 2.703125 -2.1875 L 0.796875 -2.1875 C 1.3125 -3 2.015625 -4.109375 2.703125 -5.046875 Z M 4.28125 -2.1875 L 3.453125 -2.1875 L 3.453125 -5.09375 C 3.453125 -5.59375 3.453125 -5.984375 3.484375 -6.0625 L 3.453125 -6.078125 L 3.140625 -6.078125 C 3.078125 -6.078125 3.015625 -6.015625 2.984375 -5.96875 C 2.359375 -5.1875 1.1875 -3.5625 0.28125 -2.140625 C 0.3125 -1.984375 0.375 -1.71875 0.671875 -1.71875 L 2.703125 -1.71875 L 2.703125 -0.796875 C 2.703125 -0.34375 2.328125 -0.34375 1.890625 -0.3125 C 1.828125 -0.25 1.828125 -0.046875 1.890625 0.015625 C 2.21875 0.015625 2.609375 0 3.078125 0 C 3.453125 0 3.84375 0.015625 4.15625 0.015625 C 4.21875 -0.046875 4.21875 -0.25 4.15625 -0.3125 C 3.671875 -0.34375 3.453125 -0.328125 3.453125 -0.796875 L 3.453125 -1.71875 L 4.140625 -1.71875 C 4.28125 -1.71875 4.4375 -1.90625 4.4375 -2.03125 C 4.4375 -2.125 4.390625 -2.1875 4.28125 -2.1875 Z M 4.28125 -2.1875 "/>
</g>
<g id="glyph-0-4">
<path d="M 1.046875 -4.28125 L 0.515625 -4.25 C 0.328125 -4.234375 0.265625 -4.15625 0.234375 -4.078125 C 0.234375 -4.046875 0.203125 -3.921875 0.203125 -3.90625 C 0.203125 -3.890625 0.234375 -3.890625 0.265625 -3.890625 L 0.953125 -3.890625 L 0.34375 -1.171875 C 0.265625 -0.84375 0.203125 -0.546875 0.203125 -0.359375 C 0.203125 0 0.390625 0.09375 0.703125 0.09375 C 1.140625 0.09375 1.796875 -0.3125 2.140625 -0.921875 C 2.109375 -1.0625 2.046875 -1.109375 1.921875 -1.109375 C 1.46875 -0.59375 1.28125 -0.5 1.125 -0.5 C 1.09375 -0.5 1 -0.515625 1 -0.640625 C 1 -0.734375 1.03125 -0.921875 1.109375 -1.265625 L 1.6875 -3.890625 L 2.671875 -3.890625 C 2.796875 -3.9375 2.875 -4.203125 2.765625 -4.28125 L 1.78125 -4.28125 L 1.890625 -4.71875 C 1.921875 -4.90625 2.015625 -5.203125 2.015625 -5.328125 C 2.015625 -5.5 1.9375 -5.59375 1.609375 -5.59375 C 1.25 -5.59375 1.265625 -5.140625 1.171875 -4.78125 Z M 1.046875 -4.28125 "/>
</g>
<g id="glyph-0-5">
<path d="M 3.21875 0 C 3.40625 -0.3125 4.625 -2.171875 4.921875 -2.84375 C 5.0625 -3.1875 5.1875 -3.546875 5.1875 -3.890625 C 5.1875 -4.1875 5.046875 -4.375 4.65625 -4.375 C 4.359375 -4.375 4.203125 -4.25 4.203125 -4 C 4.203125 -3.9375 4.21875 -3.84375 4.25 -3.796875 C 4.40625 -3.5625 4.453125 -3.359375 4.453125 -3.203125 C 4.453125 -2.765625 4.0625 -2.015625 3.703125 -1.46875 C 3.703125 -1.46875 3.203125 -0.640625 2.9375 -0.265625 L 2.875 -0.296875 C 2.8125 -1.46875 2.734375 -2.40625 2.4375 -3.640625 C 2.296875 -4.171875 2.171875 -4.375 1.921875 -4.375 C 1.6875 -4.375 0.953125 -3.953125 0.609375 -3.703125 C 0.625 -3.59375 0.65625 -3.46875 0.734375 -3.390625 C 0.859375 -3.453125 1.1875 -3.609375 1.390625 -3.609375 C 1.53125 -3.609375 1.625 -3.578125 1.671875 -3.5 C 1.71875 -3.421875 1.78125 -3.265625 1.828125 -3.078125 C 2.140625 -2.0625 2.4375 0.375 2.3125 0.625 C 1.90625 1.28125 1.484375 1.71875 1.34375 1.71875 C 1.25 1.71875 1.0625 1.59375 1 1.546875 C 0.921875 1.484375 0.734375 1.40625 0.640625 1.40625 C 0.4375 1.40625 0.1875 1.609375 0.1875 1.90625 C 0.1875 2.25 0.625 2.328125 0.796875 2.328125 C 1.328125 2.328125 2.125 1.6875 2.765625 0.703125 Z M 3.21875 0 "/>
</g>
<g id="glyph-0-6">
<path d="M 2.3125 -5.734375 C 2.484375 -5.734375 2.640625 -5.671875 2.765625 -5.5625 C 3.078125 -5.296875 3.34375 -4.546875 3.34375 -3.203125 C 3.34375 -2.296875 3.3125 -1.671875 3.171875 -1.15625 C 2.953125 -0.34375 2.46875 -0.25 2.28125 -0.25 C 1.359375 -0.25 1.25 -1.953125 1.25 -2.828125 C 1.25 -5.28125 1.859375 -5.734375 2.3125 -5.734375 Z M 2.265625 0.09375 C 3.046875 0.09375 4.203125 -0.671875 4.203125 -3.015625 C 4.203125 -4 3.96875 -4.859375 3.53125 -5.4375 C 3.265625 -5.765625 2.84375 -6.078125 2.3125 -6.078125 C 1.328125 -6.078125 0.390625 -4.90625 0.390625 -2.9375 C 0.390625 -1.859375 0.703125 -0.859375 1.25 -0.3125 C 1.546875 -0.03125 1.890625 0.09375 2.265625 0.09375 Z M 2.265625 0.09375 "/>
</g>
<g id="glyph-0-7">
<path d="M 0.5625 -0.421875 C 0.5625 -0.140625 0.8125 0.09375 1.09375 0.09375 C 1.390625 0.09375 1.625 -0.140625 1.625 -0.421875 C 1.625 -0.71875 1.390625 -0.953125 1.09375 -0.953125 C 0.8125 -0.953125 0.5625 -0.71875 0.5625 -0.421875 Z M 0.5625 -0.421875 "/>
</g>
<g id="glyph-0-8">
<path d="M 3.1875 -1.890625 C 3.1875 -0.9375 2.6875 -0.234375 2.078125 -0.234375 C 1.703125 -0.234375 1.578125 -0.484375 1.421875 -0.6875 C 1.296875 -0.859375 1.125 -1 0.921875 -1 C 0.734375 -1 0.53125 -0.84375 0.53125 -0.640625 C 0.53125 -0.234375 1.390625 0.109375 1.953125 0.109375 C 3.1875 0.109375 4.0625 -0.8125 4.0625 -2.0625 C 4.0625 -3.03125 3.40625 -3.890625 2.28125 -3.890625 C 1.859375 -3.890625 1.484375 -3.8125 1.3125 -3.734375 L 1.5 -5.40625 C 1.875 -5.359375 2.1875 -5.3125 2.671875 -5.3125 C 2.96875 -5.3125 3.3125 -5.328125 3.71875 -5.375 L 3.875 -6.046875 L 3.8125 -6.09375 C 3.234375 -6.03125 2.703125 -5.984375 2.171875 -5.984375 C 1.796875 -5.984375 1.453125 -6 1.09375 -6.03125 L 0.75 -3.15625 C 1.28125 -3.359375 1.671875 -3.40625 2.03125 -3.40625 C 2.671875 -3.40625 3.1875 -2.96875 3.1875 -1.890625 Z M 3.1875 -1.890625 "/>
</g>
<g id="glyph-0-9">
<path d="M 5.609375 -4.28125 L 1.828125 -4.28125 C 1.359375 -4.28125 0.8125 -3.4375 0.609375 -2.84375 L 0.78125 -2.8125 C 1.078125 -3.375 1.421875 -3.59375 1.890625 -3.59375 L 2.046875 -3.59375 C 1.421875 -0.890625 0.90625 -0.71875 0.625 -0.65625 C 0.375 -0.609375 0.234375 -0.3125 0.21875 -0.21875 C 0.203125 -0.171875 0.203125 -0.15625 0.203125 -0.109375 C 0.203125 0.0625 0.34375 0.125 0.4375 0.125 C 1.34375 0.125 1.96875 -1.1875 2.53125 -3.59375 L 3.671875 -3.59375 C 3.390625 -2.453125 3.15625 -1.5 3.03125 -0.921875 C 2.984375 -0.703125 2.953125 -0.53125 2.953125 -0.40625 C 2.953125 -0.03125 3.140625 0.125 3.59375 0.125 C 4.03125 0.125 4.5625 -0.390625 4.84375 -0.703125 L 4.71875 -0.859375 C 4.28125 -0.484375 3.890625 -0.40625 3.78125 -0.40625 C 3.640625 -0.40625 3.578125 -0.5 3.578125 -0.671875 C 3.578125 -0.78125 3.59375 -0.90625 3.640625 -1.0625 C 3.953125 -2.4375 4.140625 -3.234375 4.25 -3.59375 L 4.90625 -3.59375 C 5.25 -3.59375 5.453125 -3.8125 5.6875 -4.15625 Z M 5.609375 -4.28125 "/>
</g>
<g id="glyph-1-0">
<path d="M 1.890625 -5.515625 C 1.890625 -5.8125 2.03125 -6.15625 2.75 -6.15625 C 3.4375 -6.15625 4.125 -5.9375 4.125 -4.671875 C 4.125 -3.59375 3.609375 -3.15625 2.640625 -3.15625 C 2.390625 -3.15625 2 -3.171875 1.890625 -3.203125 Z M 1.03125 -5.21875 L 1.03125 -1.21875 C 1.03125 -0.390625 0.875 -0.34375 0.171875 -0.3125 C 0.109375 -0.25 0.109375 -0.046875 0.171875 0.015625 C 0.625 0.015625 1.109375 0 1.46875 0 C 1.8125 0 2.40625 0.015625 2.90625 0.015625 C 2.953125 -0.046875 2.953125 -0.25 2.90625 -0.3125 C 2.125 -0.34375 1.890625 -0.390625 1.890625 -1.21875 L 1.890625 -2.90625 C 2.109375 -2.84375 2.34375 -2.8125 2.6875 -2.8125 C 4.5 -2.8125 5.046875 -4 5.046875 -4.84375 C 5.046875 -5.4375 4.671875 -6.5 2.828125 -6.5 C 2.4375 -6.5 1.859375 -6.4375 1.453125 -6.4375 C 1.09375 -6.4375 0.5625 -6.4375 0.171875 -6.453125 C 0.109375 -6.390625 0.109375 -6.1875 0.171875 -6.125 C 0.875 -6.09375 1.03125 -6.046875 1.03125 -5.21875 Z M 1.03125 -5.21875 "/>
</g>
<g id="glyph-1-1">
<path d="M 0.40625 -2.046875 C 0.40625 -1.03125 1.09375 0.09375 2.5 0.09375 C 3.140625 0.09375 3.625 -0.125 3.953125 -0.453125 C 4.40625 -0.890625 4.609375 -1.515625 4.609375 -2.140625 C 4.609375 -3.171875 4.046875 -4.375 2.515625 -4.375 C 1.859375 -4.375 1.3125 -4.109375 0.953125 -3.671875 C 0.59375 -3.25 0.40625 -2.671875 0.40625 -2.046875 Z M 2.375 -4.03125 C 3.234375 -4.03125 3.765625 -3.25 3.765625 -1.8125 C 3.765625 -0.5625 3.109375 -0.25 2.640625 -0.25 C 1.609375 -0.25 1.265625 -1.5 1.265625 -2.265625 C 1.265625 -3.140625 1.46875 -4.03125 2.375 -4.03125 Z M 2.375 -4.03125 "/>
</g>
<g id="glyph-1-2">
<path d="M 0.953125 -1.21875 C 0.953125 -0.390625 0.84375 -0.34375 0.234375 -0.3125 C 0.171875 -0.25 0.171875 -0.046875 0.234375 0.015625 C 0.578125 0.015625 0.953125 0 1.34375 0 C 1.75 0 2.125 0.015625 2.453125 0.015625 C 2.515625 -0.046875 2.515625 -0.25 2.453125 -0.3125 C 1.84375 -0.34375 1.734375 -0.390625 1.734375 -1.21875 L 1.734375 -5.8125 C 1.734375 -6.453125 1.78125 -6.859375 1.78125 -6.859375 C 1.78125 -6.921875 1.734375 -6.953125 1.640625 -6.953125 C 1.390625 -6.859375 0.640625 -6.71875 0.25 -6.6875 C 0.234375 -6.609375 0.25 -6.453125 0.3125 -6.390625 C 0.890625 -6.34375 0.953125 -6.3125 0.953125 -5.578125 Z M 0.953125 -1.21875 "/>
</g>
<g id="glyph-1-3">
<path d="M 2.03125 1.59375 C 2.1875 1.328125 2.3125 1.03125 2.4375 0.734375 C 3.234375 -1.1875 3.671875 -2.203125 4.203125 -3.328125 C 4.390625 -3.75 4.546875 -3.90625 5.015625 -3.96875 C 5.078125 -4.03125 5.078125 -4.234375 5.015625 -4.296875 C 4.8125 -4.28125 4.578125 -4.28125 4.3125 -4.28125 C 4 -4.28125 3.703125 -4.28125 3.40625 -4.296875 C 3.34375 -4.234375 3.34375 -4.03125 3.40625 -3.96875 C 3.703125 -3.9375 4.03125 -3.875 3.875 -3.515625 L 2.875 -1.234375 C 2.8125 -1.0625 2.734375 -1.046875 2.640625 -1.25 L 1.765625 -3.3125 C 1.578125 -3.734375 1.53125 -3.921875 2.09375 -3.96875 C 2.15625 -4.03125 2.15625 -4.234375 2.09375 -4.296875 C 1.71875 -4.28125 1.328125 -4.28125 0.96875 -4.28125 C 0.625 -4.28125 0.359375 -4.28125 0.15625 -4.296875 C 0.09375 -4.234375 0.09375 -4.03125 0.15625 -3.96875 C 0.546875 -3.921875 0.671875 -3.828125 0.9375 -3.21875 L 2.078125 -0.59375 C 2.15625 -0.390625 2.3125 0.0625 2.21875 0.34375 C 2.09375 0.671875 1.96875 0.953125 1.828125 1.25 C 1.71875 1.453125 1.578125 1.546875 1.328125 1.546875 C 1.1875 1.546875 1.140625 1.515625 1.03125 1.515625 C 0.75 1.515625 0.59375 1.8125 0.59375 1.9375 C 0.59375 2.15625 0.796875 2.3125 1.0625 2.3125 C 1.28125 2.3125 1.671875 2.234375 2.03125 1.59375 Z M 2.03125 1.59375 "/>
</g>
<g id="glyph-1-4">
<path d="M 1.828125 -3.5625 C 1.765625 -3.5 1.71875 -3.46875 1.71875 -3.5625 C 1.703125 -3.84375 1.671875 -4.21875 1.640625 -4.328125 C 1.609375 -4.359375 1.59375 -4.40625 1.515625 -4.40625 C 1.234375 -4.296875 0.984375 -4.203125 0.296875 -4.109375 C 0.265625 -4.0625 0.296875 -3.890625 0.3125 -3.84375 C 0.84375 -3.78125 0.953125 -3.734375 0.953125 -3.15625 L 0.953125 -1.21875 C 0.953125 -0.40625 0.859375 -0.359375 0.265625 -0.3125 C 0.203125 -0.25 0.203125 -0.046875 0.265625 0.015625 C 0.5625 0.015625 0.953125 0 1.359375 0 C 1.75 0 2.046875 0.015625 2.359375 0.015625 C 2.40625 -0.046875 2.40625 -0.25 2.359375 -0.3125 C 1.84375 -0.359375 1.75 -0.40625 1.75 -1.21875 L 1.75 -2.84375 C 1.75 -3.0625 1.828125 -3.1875 1.90625 -3.265625 C 2.296875 -3.640625 2.734375 -3.859375 3.125 -3.859375 C 3.328125 -3.859375 3.53125 -3.734375 3.65625 -3.5 C 3.765625 -3.296875 3.78125 -3.03125 3.78125 -2.734375 L 3.78125 -1.21875 C 3.78125 -0.40625 3.671875 -0.359375 3.15625 -0.3125 C 3.109375 -0.25 3.109375 -0.046875 3.15625 0.015625 C 3.453125 0.015625 3.78125 0 4.171875 0 C 4.578125 0 4.9375 0.015625 5.234375 0.015625 C 5.28125 -0.046875 5.28125 -0.25 5.234375 -0.3125 C 4.671875 -0.359375 4.5625 -0.40625 4.5625 -1.21875 L 4.5625 -2.703125 C 4.5625 -3.25 4.53125 -3.734375 4.296875 -4.03125 C 4.125 -4.25 3.8125 -4.375 3.46875 -4.375 C 2.984375 -4.375 2.421875 -4.25 1.828125 -3.5625 Z M 1.828125 -3.5625 "/>
</g>
<g id="glyph-1-5">
<path d="M 1.6875 -3.5625 C 1.671875 -3.859375 1.65625 -4.21875 1.609375 -4.328125 C 1.578125 -4.359375 1.578125 -4.40625 1.5 -4.40625 C 1.21875 -4.296875 0.953125 -4.203125 0.265625 -4.109375 C 0.25 -4.0625 0.265625 -3.890625 0.296875 -3.84375 C 0.828125 -3.78125 0.9375 -3.734375 0.9375 -3.15625 L 0.9375 -1.21875 C 0.9375 -0.40625 0.8125 -0.34375 0.265625 -0.3125 C 0.203125 -0.25 0.203125 -0.046875 0.265625 0.015625 C 0.5625 0.015625 0.9375 0 1.328125 0 C 1.734375 0 2.03125 0.015625 2.328125 0.015625 C 2.390625 -0.046875 2.390625 -0.25 2.328125 -0.3125 C 1.828125 -0.359375 1.71875 -0.40625 1.71875 -1.21875 L 1.71875 -2.84375 C 1.71875 -3.0625 1.8125 -3.1875 1.890625 -3.265625 C 2.28125 -3.65625 2.65625 -3.859375 2.96875 -3.859375 C 3.34375 -3.859375 3.625 -3.625 3.625 -2.953125 L 3.625 -1.21875 C 3.625 -0.40625 3.546875 -0.34375 3.015625 -0.3125 C 2.953125 -0.25 2.953125 -0.046875 3.015625 0.015625 C 3.265625 0.015625 3.625 0 4.03125 0 C 4.421875 0 4.75 0.015625 5 0.015625 C 5.046875 -0.046875 5.046875 -0.25 5 -0.3125 C 4.5 -0.34375 4.421875 -0.40625 4.421875 -1.21875 L 4.421875 -2.796875 C 4.421875 -2.9375 4.421875 -3.078125 4.40625 -3.203125 C 4.890625 -3.734375 5.328125 -3.859375 5.71875 -3.859375 C 6.09375 -3.859375 6.3125 -3.640625 6.3125 -2.96875 L 6.3125 -1.21875 C 6.3125 -0.40625 6.21875 -0.34375 5.703125 -0.3125 C 5.65625 -0.25 5.65625 -0.046875 5.703125 0.015625 C 5.953125 0.015625 6.3125 0 6.71875 0 C 7.125 0 7.46875 0.015625 7.75 0.015625 C 7.796875 -0.046875 7.796875 -0.25 7.75 -0.3125 C 7.203125 -0.34375 7.109375 -0.40625 7.109375 -1.21875 L 7.109375 -2.796875 C 7.109375 -3.671875 6.953125 -4.375 6.078125 -4.375 C 5.5625 -4.375 4.953125 -4.1875 4.4375 -3.640625 C 4.40625 -3.609375 4.34375 -3.5625 4.328125 -3.640625 C 4.234375 -4.046875 3.84375 -4.375 3.328125 -4.375 C 2.75 -4.375 2.21875 -4.03125 1.8125 -3.5625 C 1.765625 -3.515625 1.6875 -3.453125 1.6875 -3.5625 Z M 1.6875 -3.5625 "/>
</g>
<g id="glyph-1-6">
<path d="M 2.796875 -3.59375 L 1.890625 -3.59375 L 1.890625 -5.390625 C 1.890625 -5.828125 2.015625 -6.03125 2.546875 -6.03125 L 3.296875 -6.03125 C 4.046875 -6.03125 4.203125 -5.625 4.421875 -4.9375 C 4.546875 -4.921875 4.65625 -4.9375 4.75 -5 C 4.703125 -5.40625 4.5625 -6.359375 4.53125 -6.4375 C 4.53125 -6.453125 4.53125 -6.46875 4.5 -6.46875 C 4.328125 -6.4375 4.25 -6.4375 4 -6.4375 L 1.46875 -6.4375 C 1.15625 -6.4375 0.578125 -6.4375 0.171875 -6.453125 C 0.125 -6.390625 0.125 -6.1875 0.171875 -6.125 C 0.875 -6.09375 1.046875 -6.046875 1.046875 -5.21875 L 1.046875 -1.21875 C 1.046875 -0.390625 0.875 -0.34375 0.171875 -0.3125 C 0.125 -0.25 0.125 -0.046875 0.171875 0.015625 C 0.546875 0.015625 1.140625 0 1.46875 0 L 3.625 0 C 4.09375 0 4.890625 0.015625 4.890625 0.015625 C 5.03125 -0.484375 5.1875 -1.140625 5.265625 -1.640625 C 5.15625 -1.6875 5.046875 -1.71875 4.921875 -1.6875 C 4.71875 -0.984375 4.359375 -0.390625 3.609375 -0.390625 L 2.453125 -0.390625 C 2.03125 -0.390625 1.890625 -0.546875 1.890625 -1.015625 L 1.890625 -3.21875 L 2.796875 -3.21875 C 3.65625 -3.21875 3.671875 -2.984375 3.703125 -2.546875 C 3.765625 -2.484375 3.984375 -2.484375 4.03125 -2.546875 C 4.03125 -2.796875 4.015625 -3.078125 4.015625 -3.421875 C 4.015625 -3.703125 4.03125 -4.03125 4.03125 -4.28125 C 3.984375 -4.34375 3.765625 -4.34375 3.703125 -4.28125 C 3.671875 -3.734375 3.65625 -3.59375 2.796875 -3.59375 Z M 2.796875 -3.59375 "/>
</g>
<g id="glyph-1-7">
<path d="M 1.8125 -3.5625 C 1.578125 -3.890625 1.65625 -3.921875 2.109375 -3.96875 C 2.15625 -4.03125 2.15625 -4.234375 2.109375 -4.296875 C 1.828125 -4.28125 1.390625 -4.28125 1.09375 -4.28125 C 0.796875 -4.28125 0.5 -4.28125 0.234375 -4.296875 C 0.171875 -4.234375 0.171875 -4.03125 0.234375 -3.96875 C 0.578125 -3.9375 0.859375 -3.765625 1.140625 -3.359375 L 2 -2.09375 C 2.046875 -2.015625 2.046875 -1.984375 2.015625 -1.9375 L 1.171875 -0.875 C 0.78125 -0.359375 0.5625 -0.328125 0.203125 -0.3125 C 0.15625 -0.25 0.15625 -0.046875 0.203125 0.015625 C 0.40625 0.015625 0.625 0 0.921875 0 C 1.21875 0 1.5 0.015625 1.765625 0.015625 C 1.828125 -0.046875 1.828125 -0.25 1.765625 -0.3125 C 1.40625 -0.34375 1.3125 -0.375 1.546875 -0.703125 L 2.171875 -1.609375 C 2.25 -1.71875 2.28125 -1.71875 2.359375 -1.640625 L 2.9375 -0.84375 C 3.265625 -0.359375 3.109375 -0.34375 2.796875 -0.3125 C 2.734375 -0.25 2.734375 -0.046875 2.796875 0.015625 C 3.09375 0.015625 3.421875 0 3.78125 0 C 4.171875 0 4.4375 0.015625 4.671875 0.015625 C 4.734375 -0.046875 4.734375 -0.25 4.671875 -0.3125 C 4.21875 -0.34375 4.078125 -0.375 3.671875 -0.9375 L 2.78125 -2.203125 C 2.734375 -2.25 2.734375 -2.296875 2.78125 -2.359375 L 3.625 -3.421875 C 3.984375 -3.890625 4.21875 -3.9375 4.578125 -3.96875 C 4.640625 -4.03125 4.640625 -4.234375 4.578125 -4.296875 C 4.390625 -4.28125 4.15625 -4.28125 3.859375 -4.28125 C 3.5625 -4.28125 3.28125 -4.28125 3.015625 -4.296875 C 2.953125 -4.234375 2.953125 -4.03125 3.015625 -3.96875 C 3.375 -3.921875 3.5 -3.890625 3.265625 -3.5625 L 2.609375 -2.65625 C 2.53125 -2.546875 2.5 -2.546875 2.421875 -2.671875 Z M 1.8125 -3.5625 "/>
</g>
<g id="glyph-1-8">
<path d="M 1.75 -3.296875 C 2 -3.625 2.453125 -3.921875 2.75 -3.921875 C 3.390625 -3.921875 3.9375 -3.203125 3.9375 -2.078125 C 3.9375 -1.25 3.65625 -0.234375 2.53125 -0.234375 C 2.359375 -0.234375 2 -0.296875 1.828125 -0.453125 C 1.609375 -0.625 1.578125 -0.671875 1.578125 -1.046875 L 1.578125 -2.859375 C 1.578125 -3.078125 1.625 -3.15625 1.75 -3.296875 Z M 1.5625 -3.671875 C 1.53125 -3.96875 1.515625 -4.21875 1.46875 -4.328125 C 1.453125 -4.359375 1.4375 -4.40625 1.359375 -4.40625 C 1.078125 -4.296875 0.8125 -4.203125 0.125 -4.109375 C 0.109375 -4.0625 0.125 -3.890625 0.15625 -3.84375 C 0.6875 -3.78125 0.796875 -3.734375 0.796875 -3.15625 L 0.796875 1.09375 C 0.796875 1.921875 0.6875 1.96875 0.078125 2 C 0.015625 2.0625 0.015625 2.265625 0.078125 2.328125 C 0.421875 2.328125 0.796875 2.3125 1.203125 2.3125 C 1.59375 2.3125 2.078125 2.328125 2.40625 2.328125 C 2.46875 2.265625 2.46875 2.0625 2.40625 2 C 1.6875 1.96875 1.578125 1.921875 1.578125 1.09375 L 1.578125 0.015625 C 1.578125 -0.109375 1.609375 -0.09375 1.71875 -0.046875 C 1.96875 0.046875 2.265625 0.09375 2.59375 0.09375 C 3.15625 0.09375 3.65625 -0.0625 4.0625 -0.453125 C 4.53125 -0.921875 4.796875 -1.53125 4.796875 -2.34375 C 4.796875 -3.40625 4.046875 -4.375 3.03125 -4.375 C 2.5625 -4.375 2.046875 -4.0625 1.671875 -3.625 C 1.609375 -3.5625 1.5625 -3.5625 1.5625 -3.671875 Z M 1.5625 -3.671875 "/>
</g>
<g id="glyph-1-9">
<path d="M 1.234375 -2.8125 C 1.421875 -3.9375 2.125 -4.03125 2.359375 -4.03125 C 2.734375 -4.03125 3.1875 -3.8125 3.1875 -2.984375 C 3.1875 -2.890625 3.15625 -2.84375 3.046875 -2.84375 Z M 3.84375 -0.921875 C 3.484375 -0.546875 3.1875 -0.390625 2.609375 -0.390625 C 2.25 -0.390625 1.828125 -0.59375 1.53125 -1.109375 C 1.328125 -1.4375 1.203125 -1.890625 1.203125 -2.46875 L 3.859375 -2.453125 C 3.984375 -2.453125 4.046875 -2.515625 4.046875 -2.625 C 4.046875 -3.453125 3.75 -4.359375 2.359375 -4.359375 C 1.5 -4.359375 0.375 -3.53125 0.375 -2.015625 C 0.375 -1.453125 0.515625 -0.921875 0.84375 -0.53125 C 1.171875 -0.140625 1.640625 0.09375 2.359375 0.09375 C 3.125 0.09375 3.65625 -0.25 4.0625 -0.765625 C 4.03125 -0.875 3.96875 -0.921875 3.84375 -0.921875 Z M 3.84375 -0.921875 "/>
</g>
<g id="glyph-1-10">
<path d="M 0.421875 -4.28125 C 0.296875 -4.28125 0.25 -4.15625 0.25 -4.078125 L 0.25 -3.953125 C 0.25 -3.890625 0.265625 -3.890625 0.296875 -3.890625 L 0.890625 -3.890625 L 0.890625 -0.890625 C 0.890625 -0.171875 1.203125 0.09375 1.65625 0.09375 C 2.109375 0.09375 2.609375 -0.125 3 -0.5625 C 2.984375 -0.65625 2.921875 -0.71875 2.828125 -0.734375 C 2.5625 -0.53125 2.265625 -0.453125 2 -0.453125 C 1.734375 -0.453125 1.671875 -0.75 1.671875 -1.359375 L 1.671875 -3.890625 L 2.71875 -3.890625 C 2.8125 -3.890625 2.953125 -3.921875 2.953125 -4.015625 L 2.953125 -4.21875 C 2.953125 -4.25 2.921875 -4.28125 2.875 -4.28125 L 1.671875 -4.28125 L 1.671875 -4.671875 C 1.671875 -5.3125 1.71875 -5.71875 1.71875 -5.71875 C 1.71875 -5.765625 1.6875 -5.796875 1.640625 -5.796875 C 1.578125 -5.796875 1.5 -5.75 1.421875 -5.703125 C 1.296875 -5.640625 1.203125 -5.609375 1.078125 -5.5625 C 0.953125 -5.53125 0.859375 -5.5 0.859375 -5.4375 C 0.859375 -5.3125 0.890625 -5.390625 0.890625 -4.28125 Z M 0.421875 -4.28125 "/>
</g>
<g id="glyph-1-11">
<path d="M 1.796875 -1.21875 L 1.796875 -3.203125 C 1.796875 -3.703125 1.84375 -4.34375 1.84375 -4.34375 C 1.84375 -4.375 1.796875 -4.40625 1.71875 -4.40625 C 1.421875 -4.296875 1.03125 -4.203125 0.34375 -4.109375 C 0.328125 -4.0625 0.34375 -3.890625 0.375 -3.84375 C 0.90625 -3.78125 1.015625 -3.734375 1.015625 -3.15625 L 1.015625 -1.21875 C 1.015625 -0.390625 0.90625 -0.359375 0.296875 -0.3125 C 0.234375 -0.25 0.234375 -0.046875 0.296875 0.015625 C 0.625 0.015625 1.015625 0 1.421875 0 C 1.8125 0 2.1875 0.015625 2.515625 0.015625 C 2.578125 -0.046875 2.578125 -0.25 2.515625 -0.3125 C 1.90625 -0.34375 1.796875 -0.390625 1.796875 -1.21875 Z M 0.890625 -5.96875 C 0.890625 -5.71875 1.140625 -5.453125 1.375 -5.453125 C 1.65625 -5.453125 1.890625 -5.71875 1.890625 -5.9375 C 1.890625 -6.171875 1.6875 -6.453125 1.421875 -6.453125 C 1.171875 -6.453125 0.890625 -6.203125 0.890625 -5.96875 Z M 0.890625 -5.96875 "/>
</g>
<g id="glyph-1-12">
<path d="M 2.921875 -2.328125 L 2.921875 -1 C 2.921875 -0.875 2.859375 -0.8125 2.78125 -0.75 C 2.515625 -0.53125 2.1875 -0.3125 1.90625 -0.3125 C 1.40625 -0.3125 1.1875 -0.703125 1.1875 -1.015625 C 1.1875 -1.46875 1.390625 -1.921875 2.140625 -2.109375 Z M 2.921875 -0.484375 C 2.984375 -0.171875 3.078125 0.09375 3.59375 0.09375 C 3.96875 0.09375 4.328125 -0.0625 4.53125 -0.265625 C 4.515625 -0.390625 4.46875 -0.46875 4.359375 -0.53125 C 4.28125 -0.46875 4.109375 -0.375 4 -0.375 C 3.703125 -0.375 3.703125 -0.765625 3.703125 -1.21875 L 3.703125 -2.6875 C 3.703125 -4.109375 2.921875 -4.375 2.1875 -4.375 C 1.375 -4.375 0.546875 -3.84375 0.546875 -3.265625 C 0.546875 -3.03125 0.671875 -2.90625 0.890625 -2.90625 C 1.1875 -2.90625 1.359375 -3.125 1.359375 -3.25 C 1.359375 -3.3125 1.359375 -3.390625 1.328125 -3.421875 C 1.328125 -3.453125 1.3125 -3.515625 1.3125 -3.625 C 1.3125 -3.9375 1.734375 -4.046875 2.109375 -4.046875 C 2.453125 -4.046875 2.921875 -3.875 2.921875 -2.75 C 2.921875 -2.6875 2.890625 -2.640625 2.859375 -2.625 L 2 -2.421875 C 1.046875 -2.1875 0.359375 -1.65625 0.359375 -0.984375 C 0.359375 -0.15625 0.921875 0.09375 1.609375 0.09375 C 1.953125 0.09375 2.265625 0.015625 2.703125 -0.3125 L 2.90625 -0.484375 Z M 2.921875 -0.484375 "/>
</g>
<g id="glyph-1-13">
<path d="M 1.75 -1.21875 L 1.75 -3.890625 L 2.671875 -3.890625 C 2.765625 -3.890625 2.90625 -3.921875 2.90625 -4.015625 L 2.90625 -4.21875 C 2.90625 -4.25 2.875 -4.28125 2.828125 -4.28125 L 1.75 -4.28125 L 1.75 -4.84375 C 1.75 -6.375 2.203125 -6.625 2.53125 -6.625 C 2.828125 -6.625 2.984375 -6.5 3.125 -6.15625 C 3.203125 -5.96875 3.3125 -5.828125 3.53125 -5.828125 C 3.703125 -5.828125 3.9375 -6.046875 3.9375 -6.234375 C 3.9375 -6.40625 3.828125 -6.59375 3.625 -6.75 C 3.359375 -6.921875 3.09375 -6.953125 2.71875 -6.953125 C 1.890625 -6.953125 0.953125 -6.234375 0.953125 -4.671875 L 0.953125 -4.28125 L 0.453125 -4.28125 C 0.265625 -4.28125 0.21875 -4.15625 0.21875 -4.078125 L 0.21875 -3.953125 C 0.21875 -3.890625 0.234375 -3.890625 0.265625 -3.890625 L 0.953125 -3.890625 L 0.953125 -1.21875 C 0.953125 -0.390625 0.796875 -0.34375 0.265625 -0.3125 C 0.203125 -0.25 0.203125 -0.046875 0.265625 0.015625 C 0.609375 0.015625 0.953125 0 1.359375 0 C 1.75 0 2.234375 0.015625 2.578125 0.015625 C 2.640625 -0.046875 2.640625 -0.25 2.578125 -0.3125 C 1.796875 -0.34375 1.75 -0.390625 1.75 -1.21875 Z M 1.75 -1.21875 "/>
</g>
<g id="glyph-1-14">
<path d="M 2.15625 0.09375 C 2.546875 0.09375 3.015625 -0.09375 3.515625 -0.5 C 3.5625 -0.53125 3.65625 -0.5625 3.65625 -0.484375 C 3.671875 -0.234375 3.765625 0.09375 3.765625 0.09375 C 3.84375 0.125 3.890625 0.125 3.953125 0.09375 C 4.171875 -0.078125 4.53125 -0.234375 5.140625 -0.296875 C 5.1875 -0.359375 5.1875 -0.515625 5.140625 -0.5625 C 4.5 -0.625 4.40625 -0.8125 4.40625 -1.296875 L 4.40625 -3.203125 C 4.40625 -3.515625 4.453125 -4.234375 4.453125 -4.234375 C 4.453125 -4.265625 4.421875 -4.296875 4.359375 -4.296875 C 4.3125 -4.28125 4.171875 -4.28125 4.015625 -4.28125 C 3.703125 -4.28125 3.34375 -4.28125 3 -4.296875 C 2.9375 -4.234375 2.9375 -4.03125 3 -3.96875 C 3.484375 -3.9375 3.625 -3.8125 3.625 -3.15625 L 3.625 -1.234375 C 3.625 -1.046875 3.59375 -0.96875 3.453125 -0.84375 C 3.09375 -0.53125 2.71875 -0.375 2.46875 -0.375 C 2.15625 -0.375 1.671875 -0.515625 1.671875 -1.390625 L 1.671875 -3.203125 C 1.671875 -3.515625 1.703125 -4.234375 1.703125 -4.234375 C 1.703125 -4.265625 1.671875 -4.296875 1.625 -4.296875 C 1.578125 -4.28125 1.421875 -4.28125 1.28125 -4.28125 C 0.953125 -4.28125 0.59375 -4.28125 0.265625 -4.296875 C 0.203125 -4.234375 0.203125 -4.03125 0.265625 -3.96875 C 0.734375 -3.921875 0.875 -3.8125 0.875 -3.171875 L 0.875 -1.25 C 0.875 -0.5625 1.171875 0.09375 2.15625 0.09375 Z M 2.15625 0.09375 "/>
</g>
<g id="glyph-1-15">
<path d="M 0.859375 -1.21875 C 0.859375 -0.390625 0.75 -0.34375 0.1875 -0.3125 C 0.125 -0.25 0.125 -0.046875 0.1875 0.015625 C 0.515625 0.015625 0.859375 0 1.25 0 C 1.609375 0 1.9375 0.015625 2.15625 0.015625 C 2.21875 -0.046875 2.21875 -0.25 2.15625 -0.3125 C 1.75 -0.34375 1.640625 -0.390625 1.640625 -1.21875 L 1.640625 -2.078125 C 1.828125 -2.078125 1.96875 -2.046875 2.078125 -2.03125 C 2.1875 -1.953125 2.265625 -1.859375 2.390625 -1.703125 L 3.125 -0.734375 C 3.40625 -0.328125 3.515625 -0.140625 3.53125 -0.03125 C 3.53125 0 3.546875 0.015625 3.578125 0.015625 C 3.78125 0.015625 4 0 4.203125 0 C 4.5 0 4.8125 0.015625 5.015625 0.015625 C 5.078125 -0.046875 5.078125 -0.25 5.015625 -0.3125 C 4.671875 -0.34375 4.421875 -0.390625 4.15625 -0.734375 L 2.84375 -2.375 C 2.796875 -2.421875 2.765625 -2.46875 2.765625 -2.515625 C 2.765625 -2.5625 2.765625 -2.578125 2.8125 -2.625 L 3.6875 -3.53125 C 3.984375 -3.84375 4.34375 -3.921875 4.734375 -3.96875 C 4.796875 -4.03125 4.796875 -4.234375 4.734375 -4.296875 C 4.5 -4.28125 4.234375 -4.28125 3.875 -4.28125 C 3.484375 -4.28125 3.125 -4.28125 2.890625 -4.296875 C 2.828125 -4.234375 2.828125 -4.03125 2.890625 -3.96875 C 3.453125 -3.921875 3.203125 -3.5625 3.125 -3.453125 C 2.890625 -3.171875 2.578125 -2.828125 2.328125 -2.640625 C 2.09375 -2.46875 1.828125 -2.359375 1.640625 -2.328125 L 1.640625 -5.8125 C 1.640625 -6.453125 1.6875 -6.859375 1.6875 -6.859375 C 1.6875 -6.921875 1.640625 -6.953125 1.5625 -6.953125 C 1.3125 -6.859375 0.5625 -6.71875 0.15625 -6.6875 C 0.140625 -6.609375 0.15625 -6.453125 0.21875 -6.390625 C 0.734375 -6.359375 0.859375 -6.40625 0.859375 -5.578125 Z M 0.859375 -1.21875 "/>
</g>
<g id="glyph-1-16">
<path d="M 3.921875 -6.296875 C 3.34375 -6.375 3.375 -6.5625 2.40625 -6.5625 C 1.390625 -6.5625 0.515625 -5.890625 0.515625 -4.828125 C 0.515625 -3.78125 1.359375 -3.296875 2.25 -2.96875 C 2.84375 -2.734375 3.59375 -2.453125 3.59375 -1.484375 C 3.59375 -0.671875 3.125 -0.265625 2.34375 -0.265625 C 1.40625 -0.265625 0.8125 -0.671875 0.59375 -1.671875 C 0.46875 -1.71875 0.359375 -1.6875 0.265625 -1.640625 C 0.3125 -0.875 0.34375 -0.625 0.46875 -0.125 C 1.09375 -0.125 1.359375 0.09375 2.25 0.09375 C 2.71875 0.09375 3.140625 -0.015625 3.484375 -0.21875 C 4.0625 -0.578125 4.421875 -1.203125 4.421875 -1.828125 C 4.421875 -2.890625 3.625 -3.359375 2.796875 -3.65625 C 2.21875 -3.890625 1.21875 -4.25 1.21875 -5.109375 C 1.21875 -5.65625 1.71875 -6.21875 2.296875 -6.21875 C 3.28125 -6.21875 3.59375 -5.609375 3.78125 -4.9375 C 3.890625 -4.921875 4.015625 -4.9375 4.109375 -5 C 4.078125 -5.484375 4.03125 -5.765625 3.921875 -6.296875 Z M 3.921875 -6.296875 "/>
</g>
<g id="glyph-1-17">
<path d="M 0.484375 -1.375 C 0.515625 -0.890625 0.546875 -0.421875 0.546875 0 C 0.640625 -0.015625 0.75 -0.03125 0.796875 -0.03125 C 0.875 -0.03125 0.921875 -0.03125 1 -0.015625 C 1.265625 0.0625 1.53125 0.09375 1.90625 0.09375 C 2.46875 0.09375 3.484375 -0.171875 3.484375 -1.15625 C 3.484375 -1.828125 3 -2.234375 2.328125 -2.484375 C 1.71875 -2.703125 1.328125 -2.859375 1.328125 -3.40625 C 1.328125 -3.8125 1.6875 -4.046875 2.03125 -4.046875 C 2.25 -4.046875 2.828125 -3.96875 2.953125 -3.125 C 3.015625 -3.0625 3.203125 -3.078125 3.265625 -3.125 C 3.296875 -3.484375 3.3125 -3.859375 3.328125 -4.1875 C 3.015625 -4.234375 2.546875 -4.375 2.03125 -4.375 C 1.28125 -4.375 0.625 -3.890625 0.625 -3.265625 C 0.625 -2.53125 0.953125 -2.21875 1.71875 -1.90625 C 2.546875 -1.5625 2.734375 -1.359375 2.734375 -0.921875 C 2.734375 -0.4375 2.25 -0.234375 1.890625 -0.234375 C 1.5 -0.234375 1.28125 -0.359375 1.171875 -0.46875 C 0.953125 -0.703125 0.84375 -1.140625 0.78125 -1.390625 C 0.734375 -1.453125 0.53125 -1.4375 0.484375 -1.375 Z M 0.484375 -1.375 "/>
</g>
<g id="glyph-2-0">
<path d="M 3.921875 -2.984375 L 1.28125 -2.984375 C 0.953125 -2.984375 0.578125 -2.40625 0.421875 -1.984375 L 0.546875 -1.96875 C 0.75 -2.359375 1 -2.515625 1.3125 -2.515625 L 1.4375 -2.515625 C 1 -0.625 0.640625 -0.5 0.4375 -0.453125 C 0.265625 -0.421875 0.171875 -0.21875 0.15625 -0.15625 C 0.140625 -0.125 0.140625 -0.109375 0.140625 -0.078125 C 0.140625 0.046875 0.234375 0.078125 0.3125 0.078125 C 0.9375 0.078125 1.375 -0.828125 1.765625 -2.515625 L 2.578125 -2.515625 C 2.375 -1.71875 2.203125 -1.046875 2.125 -0.640625 C 2.078125 -0.5 2.0625 -0.375 2.0625 -0.28125 C 2.0625 -0.015625 2.1875 0.078125 2.515625 0.078125 C 2.8125 0.078125 3.1875 -0.265625 3.390625 -0.484375 L 3.296875 -0.59375 C 3 -0.328125 2.71875 -0.28125 2.640625 -0.28125 C 2.546875 -0.28125 2.5 -0.34375 2.5 -0.46875 C 2.5 -0.546875 2.515625 -0.640625 2.546875 -0.734375 C 2.765625 -1.703125 2.90625 -2.265625 2.96875 -2.515625 L 3.421875 -2.515625 C 3.671875 -2.515625 3.8125 -2.671875 3.984375 -2.90625 Z M 3.921875 -2.984375 "/>
</g>
<g id="glyph-2-1">
<path d="M 0.421875 -3.265625 C 0.421875 -3.109375 0.5625 -2.984375 0.703125 -2.984375 C 0.828125 -2.984375 1.03125 -3.109375 1.03125 -3.265625 C 1.03125 -3.328125 1.015625 -3.359375 1 -3.421875 C 0.984375 -3.46875 0.953125 -3.53125 0.953125 -3.578125 C 0.953125 -3.75 1.125 -4 1.640625 -4 C 1.890625 -4 2.25 -3.828125 2.25 -3.15625 C 2.25 -2.71875 2.078125 -2.359375 1.671875 -1.9375 L 1.15625 -1.421875 C 0.46875 -0.734375 0.359375 -0.390625 0.359375 0.015625 C 0.359375 0.015625 0.71875 0 0.9375 0 L 2.15625 0 C 2.390625 0 2.703125 0.015625 2.703125 0.015625 C 2.796875 -0.359375 2.859375 -0.875 2.875 -1.09375 C 2.828125 -1.125 2.734375 -1.140625 2.671875 -1.125 C 2.546875 -0.625 2.4375 -0.453125 2.1875 -0.453125 L 0.9375 -0.453125 C 0.9375 -0.78125 1.421875 -1.265625 1.453125 -1.296875 L 2.15625 -1.96875 C 2.5625 -2.359375 2.859375 -2.65625 2.859375 -3.1875 C 2.859375 -3.9375 2.25 -4.25 1.671875 -4.25 C 0.90625 -4.25 0.421875 -3.671875 0.421875 -3.265625 Z M 0.421875 -3.265625 "/>
</g>
<g id="glyph-2-2">
<path d="M 1.5 -4 C 1.796875 -4 2.078125 -3.828125 2.078125 -3.375 C 2.078125 -3.03125 1.671875 -2.5 0.984375 -2.390625 L 1.015625 -2.171875 C 1.140625 -2.1875 1.265625 -2.1875 1.359375 -2.1875 C 1.75 -2.1875 2.265625 -2.078125 2.265625 -1.296875 C 2.265625 -0.359375 1.640625 -0.171875 1.40625 -0.171875 C 1.046875 -0.171875 0.984375 -0.328125 0.90625 -0.453125 C 0.828125 -0.5625 0.734375 -0.640625 0.59375 -0.640625 C 0.453125 -0.640625 0.3125 -0.515625 0.3125 -0.390625 C 0.3125 -0.125 0.890625 0.0625 1.3125 0.0625 C 2.140625 0.0625 2.875 -0.46875 2.875 -1.390625 C 2.875 -2.140625 2.3125 -2.421875 1.890625 -2.484375 L 1.890625 -2.5 C 2.453125 -2.765625 2.625 -3.0625 2.625 -3.421875 C 2.625 -3.625 2.578125 -3.8125 2.40625 -3.984375 C 2.25 -4.125 2 -4.25 1.640625 -4.25 C 0.625 -4.25 0.328125 -3.578125 0.328125 -3.359375 C 0.328125 -3.25 0.390625 -3.109375 0.5625 -3.109375 C 0.8125 -3.109375 0.84375 -3.34375 0.84375 -3.484375 C 0.84375 -3.921875 1.3125 -4 1.5 -4 Z M 1.5 -4 "/>
</g>
</g>
<clipPath id="clip-0">
<path clip-rule="nonzero" d="M 0 0 L 457.480469 0 L 457.480469 138.261719 L 0 138.261719 Z M 0 0 "/>
</clipPath>
<clipPath id="clip-1">
<path clip-rule="nonzero" d="M 31.367188 45.410156 L 114.097656 45.410156 L 114.097656 99.789062 L 31.367188 99.789062 Z M 31.367188 45.410156 "/>
</clipPath>
<clipPath id="clip-2">
<path clip-rule="nonzero" d="M 187.273438 45.410156 L 270.003906 45.410156 L 270.003906 99.789062 L 187.273438 99.789062 Z M 187.273438 45.410156 "/>
</clipPath>
<clipPath id="clip-3">
<path clip-rule="nonzero" d="M 343.179688 45.410156 L 425.90625 45.410156 L 425.90625 99.789062 L 343.179688 99.789062 Z M 343.179688 45.410156 "/>
</clipPath>
</defs>
<g clip-path="url(#clip-0)">
<path fill-rule="nonzero" fill="rgb(95.292664%, 95.684814%, 95.684814%)" fill-opacity="1" d="M 0 130.292969 L 0 7.96875 C 0 3.566406 3.566406 0 7.96875 0 L 449.515625 0 C 453.917969 0 457.484375 3.566406 457.484375 7.96875 L 457.484375 130.292969 C 457.484375 134.695312 453.917969 138.261719 449.515625 138.261719 L 7.96875 138.261719 C 3.566406 138.261719 0 134.695312 0 130.292969 Z M 0 130.292969 "/>
</g>
<path fill="none" stroke-width="0.3985" stroke-linecap="butt" stroke-linejoin="miter" stroke="rgb(56.939697%, 57.174683%, 57.174683%)" stroke-opacity="1" stroke-miterlimit="10" d="M -0.0018125 0.0019375 L -0.0018125 54.380844 M 20.681781 0.0019375 L 20.681781 54.380844 M 62.045063 0.0019375 L 62.045063 54.380844 M 82.728656 0.0019375 L 82.728656 54.380844 " transform="matrix(1, 0, 0, -1, 31.369, 99.791)"/>
<path fill="none" stroke-width="0.3985" stroke-linecap="butt" stroke-linejoin="miter" stroke="rgb(56.939697%, 57.174683%, 57.174683%)" stroke-opacity="1" stroke-miterlimit="10" d="M -0.0018125 29.662094 L 82.728656 29.662094 M -0.0018125 49.435531 L 82.728656 49.435531 " transform="matrix(1, 0, 0, -1, 31.369, 99.791)"/>
<path fill="none" stroke-width="0.19925" stroke-linecap="butt" stroke-linejoin="miter" stroke="rgb(50%, 50%, 50%)" stroke-opacity="1" stroke-miterlimit="10" d="M -0.0018125 7.75975 L -0.0018125 12.013656 M 20.681781 7.75975 L 20.681781 12.013656 M 62.045063 7.75975 L 62.045063 12.013656 M 82.728656 7.75975 L 82.728656 12.013656 " transform="matrix(1, 0, 0, -1, 31.369, 99.791)"/>
<path fill="none" stroke-width="0.19925" stroke-linecap="butt" stroke-linejoin="miter" stroke="rgb(50%, 50%, 50%)" stroke-opacity="1" stroke-miterlimit="10" d="M 39.240375 29.662094 L 43.490375 29.662094 M 39.240375 49.435531 L 43.490375 49.435531 " transform="matrix(1, 0, 0, -1, 31.369, 99.791)"/>
<path fill="none" stroke-width="0.79701" stroke-linecap="butt" stroke-linejoin="miter" stroke="rgb(0%, 0%, 0%)" stroke-opacity="1" stroke-miterlimit="10" d="M -0.0018125 9.888656 L 80.138813 9.888656 " transform="matrix(1, 0, 0, -1, 31.369, 99.791)"/>
<path fill-rule="nonzero" fill="rgb(0%, 0%, 0%)" fill-opacity="1" d="M 114.097656 89.902344 L 109.953125 87.832031 L 111.507812 89.902344 L 109.953125 91.976562 "/>
<path fill="none" stroke-width="0.79701" stroke-linecap="butt" stroke-linejoin="miter" stroke="rgb(0%, 0%, 0%)" stroke-opacity="1" stroke-miterlimit="10" d="M 41.365375 0.0019375 L 41.365375 51.791 " transform="matrix(1, 0, 0, -1, 31.369, 99.791)"/>
<path fill-rule="nonzero" fill="rgb(0%, 0%, 0%)" fill-opacity="1" d="M 72.734375 45.410156 L 70.660156 49.554688 L 72.734375 48 L 74.804688 49.554688 "/>
<g fill="rgb(0%, 0%, 0%)" fill-opacity="1">
<use xlink:href="#glyph-0-0" x="26.313" y="101.942"/>
<use xlink:href="#glyph-0-1" x="31.792452" y="101.942"/>
</g>
<g fill="rgb(0%, 0%, 0%)" fill-opacity="1">
<use xlink:href="#glyph-0-0" x="46.995" y="101.922"/>
<use xlink:href="#glyph-0-2" x="52.474452" y="101.922"/>
</g>
<g fill="rgb(0%, 0%, 0%)" fill-opacity="1">
<use xlink:href="#glyph-0-2" x="91.099" y="101.922"/>
</g>
<g fill="rgb(0%, 0%, 0%)" fill-opacity="1">
<use xlink:href="#glyph-0-1" x="111.781" y="101.942"/>
</g>
<g fill="rgb(0%, 0%, 0%)" fill-opacity="1">
<use xlink:href="#glyph-0-1" x="62.14" y="73.158"/>
</g>
<g fill="rgb(0%, 0%, 0%)" fill-opacity="1">
<use xlink:href="#glyph-0-3" x="62.14" y="53.383"/>
</g>
<g clip-path="url(#clip-1)">
<path fill="none" stroke-width="1.59404" stroke-linecap="butt" stroke-linejoin="miter" stroke="rgb(0%, 35.293579%, 58.036804%)" stroke-opacity="1" stroke-miterlimit="10" d="M -0.0018125 49.435531 L 0.275531 48.908187 L 0.552875 48.38475 L 1.107563 47.345687 L 1.384906 46.833969 L 1.658344 46.326156 L 1.935688 45.818344 L 2.213031 45.314437 L 2.767719 44.32225 L 3.045063 43.830062 L 3.3185 43.341781 L 3.595844 42.857406 L 4.150531 41.896469 L 4.705219 40.951156 L 4.978656 40.486312 L 5.256 40.021469 L 5.533344 39.560531 L 5.810688 39.1035 L 6.088031 38.650375 L 6.365375 38.201156 L 6.638813 37.755844 L 6.916156 37.314437 L 7.470844 36.439437 L 8.025531 35.580062 L 8.298969 35.154281 L 8.853656 34.318344 L 9.131 33.904281 L 9.685688 33.083969 L 9.959125 32.681625 L 10.513813 31.88475 L 11.0685 31.1035 L 11.345844 30.716781 L 11.619281 30.333969 L 11.896625 29.955062 L 12.173969 29.580062 L 12.451313 29.208969 L 12.728656 28.841781 L 13.006 28.4785 L 13.279438 28.115219 L 13.834125 27.404281 L 14.388813 26.708969 L 14.666156 26.365219 L 14.939594 26.025375 L 15.216938 25.689437 L 15.771625 25.025375 L 16.048969 24.701156 L 16.326313 24.380844 L 16.59975 24.060531 L 16.877094 23.744125 L 17.431781 23.126937 L 17.709125 22.82225 L 17.986469 22.521469 L 18.259906 22.224594 L 18.814594 21.638656 L 19.091938 21.3535 L 19.646625 20.791 L 19.920063 20.513656 L 20.47475 19.974594 L 20.752094 19.708969 L 21.029438 19.44725 L 21.306781 19.189437 L 21.580219 18.931625 L 21.857563 18.681625 L 22.41225 18.189437 L 22.966938 17.712875 L 23.240375 17.4785 L 23.517719 17.248031 L 23.795063 17.021469 L 24.072406 16.798812 L 24.34975 16.580062 L 24.627094 16.365219 L 24.900531 16.150375 L 25.455219 15.736312 L 26.009906 15.337875 L 26.28725 15.142562 L 26.560688 14.951156 L 26.838031 14.763656 L 27.115375 14.580062 L 27.392719 14.400375 L 27.947406 14.048812 L 28.220844 13.880844 L 28.498188 13.712875 L 28.775531 13.548812 L 29.330219 13.236312 L 29.607563 13.083969 L 29.881 12.935531 L 30.435688 12.646469 L 30.713031 12.50975 L 31.267719 12.244125 L 31.541156 12.115219 L 32.095844 11.873031 L 32.373188 11.755844 L 32.650531 11.642562 L 32.927875 11.533187 L 33.201313 11.427719 L 33.756 11.224594 L 34.310688 11.037094 L 34.588031 10.94725 L 34.861469 10.865219 L 35.138813 10.783187 L 35.416156 10.705062 L 35.6935 10.630844 L 35.970844 10.560531 L 36.248188 10.494125 L 36.521625 10.427719 L 37.076313 10.310531 L 37.631 10.208969 L 37.908344 10.162094 L 38.181781 10.119125 L 38.459125 10.083969 L 38.736469 10.044906 L 39.013813 10.013656 L 39.291156 9.986312 L 39.5685 9.962875 L 39.841938 9.939437 L 40.396625 9.908187 L 40.673969 9.896469 L 41.228656 9.888656 L 41.502094 9.888656 L 42.056781 9.896469 L 42.334125 9.908187 L 42.888813 9.939437 L 43.16225 9.962875 L 43.439594 9.986312 L 43.716938 10.013656 L 43.994281 10.044906 L 44.271625 10.083969 L 44.548969 10.119125 L 44.822406 10.162094 L 45.09975 10.208969 L 45.654438 10.310531 L 46.209125 10.427719 L 46.482563 10.494125 L 46.759906 10.560531 L 47.03725 10.630844 L 47.314594 10.705062 L 47.591938 10.783187 L 47.869281 10.865219 L 48.142719 10.94725 L 48.420063 11.037094 L 48.97475 11.224594 L 49.529438 11.427719 L 49.802875 11.533187 L 50.080219 11.642562 L 50.357563 11.755844 L 50.634906 11.873031 L 51.189594 12.115219 L 51.463031 12.244125 L 52.017719 12.50975 L 52.295063 12.646469 L 52.84975 12.935531 L 53.123188 13.083969 L 53.400531 13.236312 L 53.955219 13.548812 L 54.232563 13.712875 L 54.509906 13.880844 L 54.783344 14.048812 L 55.338031 14.400375 L 55.615375 14.580062 L 55.892719 14.763656 L 56.170063 14.951156 L 56.4435 15.142562 L 56.720844 15.337875 L 57.275531 15.736312 L 57.830219 16.150375 L 58.103656 16.365219 L 58.381 16.580062 L 58.658344 16.798812 L 58.935688 17.021469 L 59.213031 17.248031 L 59.490375 17.4785 L 59.763813 17.712875 L 60.3185 18.189437 L 60.873188 18.681625 L 61.150531 18.931625 L 61.423969 19.189437 L 61.701313 19.44725 L 61.978656 19.708969 L 62.256 19.974594 L 62.810688 20.513656 L 63.084125 20.791 L 63.638813 21.3535 L 63.916156 21.638656 L 64.470844 22.224594 L 64.744281 22.521469 L 65.021625 22.82225 L 65.298969 23.126937 L 65.853656 23.744125 L 66.131 24.060531 L 66.404438 24.380844 L 66.681781 24.701156 L 66.959125 25.025375 L 67.513813 25.689437 L 67.791156 26.025375 L 68.064594 26.365219 L 68.341938 26.708969 L 68.896625 27.404281 L 69.451313 28.115219 L 69.72475 28.4785 L 70.002094 28.841781 L 70.279438 29.208969 L 70.556781 29.580062 L 70.834125 29.955062 L 71.111469 30.333969 L 71.384906 30.716781 L 71.66225 31.1035 L 72.216938 31.88475 L 72.771625 32.681625 L 73.045063 33.083969 L 73.59975 33.904281 L 73.877094 34.318344 L 74.431781 35.154281 L 74.705219 35.580062 L 75.259906 36.439437 L 75.814594 37.314437 L 76.091938 37.755844 L 76.365375 38.201156 L 76.642719 38.650375 L 76.920063 39.1035 L 77.197406 39.560531 L 77.47475 40.021469 L 77.752094 40.486312 L 78.025531 40.951156 L 78.580219 41.896469 L 79.134906 42.857406 L 79.41225 43.341781 L 79.685688 43.830062 L 79.963031 44.32225 L 80.517719 45.314437 L 80.795063 45.818344 L 81.072406 46.326156 L 81.345844 46.833969 L 81.623188 47.345687 L 82.177875 48.38475 L 82.455219 48.908187 L 82.732563 49.435531 " transform="matrix(1, 0, 0, -1, 31.369, 99.791)"/>
</g>
<g fill="rgb(0%, 0%, 0%)" fill-opacity="1">
<use xlink:href="#glyph-0-4" x="107.243" y="85.969"/>
</g>
<g fill="rgb(0%, 0%, 0%)" fill-opacity="1">
<use xlink:href="#glyph-0-5" x="76.568" y="53.62"/>
</g>
<g fill="rgb(0%, 0%, 0%)" fill-opacity="1">
<use xlink:href="#glyph-1-0" x="54.502" y="33.287"/>
<use xlink:href="#glyph-1-1" x="59.891788" y="33.287"/>
<use xlink:href="#glyph-1-2" x="64.912959" y="33.287"/>
<use xlink:href="#glyph-1-3" x="67.543096" y="33.287"/>
<use xlink:href="#glyph-1-4" x="72.673855" y="33.287"/>
<use xlink:href="#glyph-1-1" x="78.073606" y="33.287"/>
<use xlink:href="#glyph-1-5" x="83.094777" y="33.287"/>
</g>
<path fill="none" stroke-width="0.3985" stroke-linecap="butt" stroke-linejoin="miter" stroke="rgb(56.939697%, 57.174683%, 57.174683%)" stroke-opacity="1" stroke-miterlimit="10" d="M 20.682031 0.0019375 L 20.682031 54.380844 M 41.365625 0.0019375 L 41.365625 54.380844 M 62.045312 0.0019375 L 62.045312 54.380844 M 82.728906 0.0019375 L 82.728906 54.380844 " transform="matrix(1, 0, 0, -1, 187.275, 99.791)"/>
<path fill="none" stroke-width="0.3985" stroke-linecap="butt" stroke-linejoin="miter" stroke="rgb(56.939697%, 57.174683%, 57.174683%)" stroke-opacity="1" stroke-miterlimit="10" d="M -0.0015625 24.716781 L 82.728906 24.716781 M -0.0015625 49.435531 L 82.728906 49.435531 " transform="matrix(1, 0, 0, -1, 187.275, 99.791)"/>
<path fill="none" stroke-width="0.19925" stroke-linecap="butt" stroke-linejoin="miter" stroke="rgb(50%, 50%, 50%)" stroke-opacity="1" stroke-miterlimit="10" d="M 20.682031 -2.126969 L 20.682031 2.126937 M 41.365625 -2.126969 L 41.365625 2.126937 M 62.045312 -2.126969 L 62.045312 2.126937 M 82.728906 -2.126969 L 82.728906 2.126937 " transform="matrix(1, 0, 0, -1, 187.275, 99.791)"/>
<path fill="none" stroke-width="0.19925" stroke-linecap="butt" stroke-linejoin="miter" stroke="rgb(50%, 50%, 50%)" stroke-opacity="1" stroke-miterlimit="10" d="M -2.126563 24.716781 L 2.127344 24.716781 M -2.126563 49.435531 L 2.127344 49.435531 " transform="matrix(1, 0, 0, -1, 187.275, 99.791)"/>
<path fill="none" stroke-width="0.79701" stroke-linecap="butt" stroke-linejoin="miter" stroke="rgb(0%, 0%, 0%)" stroke-opacity="1" stroke-miterlimit="10" d="M -0.0015625 0.0019375 L 80.139062 0.0019375 " transform="matrix(1, 0, 0, -1, 187.275, 99.791)"/>
<path fill-rule="nonzero" fill="rgb(0%, 0%, 0%)" fill-opacity="1" d="M 270.003906 99.789062 L 265.859375 97.71875 L 267.414062 99.789062 L 265.859375 101.863281 "/>
<path fill="none" stroke-width="0.79701" stroke-linecap="butt" stroke-linejoin="miter" stroke="rgb(0%, 0%, 0%)" stroke-opacity="1" stroke-miterlimit="10" d="M -0.0015625 0.0019375 L -0.0015625 51.791 " transform="matrix(1, 0, 0, -1, 187.275, 99.791)"/>
<path fill-rule="nonzero" fill="rgb(0%, 0%, 0%)" fill-opacity="1" d="M 187.273438 45.410156 L 185.203125 49.554688 L 187.273438 48 L 189.347656 49.554688 "/>
<g fill="rgb(0%, 0%, 0%)" fill-opacity="1">
<use xlink:href="#glyph-0-6" x="202.228" y="111.839"/>
<use xlink:href="#glyph-0-7" x="206.860628" y="111.839"/>
<use xlink:href="#glyph-0-8" x="209.052408" y="111.839"/>
</g>
<g fill="rgb(0%, 0%, 0%)" fill-opacity="1">
<use xlink:href="#glyph-0-2" x="226.322" y="111.809"/>
</g>
<g fill="rgb(0%, 0%, 0%)" fill-opacity="1">
<use xlink:href="#glyph-0-2" x="243.592" y="111.839"/>
<use xlink:href="#glyph-0-7" x="248.224628" y="111.839"/>
<use xlink:href="#glyph-0-8" x="250.416408" y="111.839"/>
</g>
<g fill="rgb(0%, 0%, 0%)" fill-opacity="1">
<use xlink:href="#glyph-0-1" x="267.687" y="111.829"/>
</g>
<g fill="rgb(0%, 0%, 0%)" fill-opacity="1">
<use xlink:href="#glyph-0-6" x="169.857" y="78.062"/>
<use xlink:href="#glyph-0-7" x="174.489628" y="78.062"/>
<use xlink:href="#glyph-0-8" x="176.681408" y="78.062"/>
</g>
<g fill="rgb(0%, 0%, 0%)" fill-opacity="1">
<use xlink:href="#glyph-0-2" x="176.681" y="53.373"/>
</g>
<g clip-path="url(#clip-2)">
<path fill="none" stroke-width="1.59404" stroke-linecap="butt" stroke-linejoin="miter" stroke="rgb(0%, 35.293579%, 58.036804%)" stroke-opacity="1" stroke-miterlimit="10" d="M -0.0015625 49.435531 L 0.275781 48.943344 L 0.553125 48.455062 L 0.830469 47.970687 L 1.385156 47.017562 L 1.658594 46.548812 L 1.935937 46.083969 L 2.213281 45.623031 L 2.767969 44.716781 L 3.045312 44.271469 L 3.31875 43.830062 L 3.596094 43.392562 L 3.873437 42.958969 L 4.150781 42.529281 L 4.428125 42.1035 L 4.705469 41.685531 L 4.978906 41.267562 L 5.533594 40.44725 L 5.810937 40.044906 L 6.365625 39.248031 L 6.639062 38.857406 L 7.19375 38.083969 L 7.471094 37.705062 L 8.025781 36.955062 L 8.299219 36.587875 L 8.576562 36.220687 L 9.13125 35.501937 L 9.408594 35.146469 L 9.682031 34.798812 L 9.959375 34.451156 L 10.514062 33.763656 L 10.791406 33.427719 L 11.06875 33.095687 L 11.342187 32.763656 L 11.619531 32.435531 L 11.896875 32.111312 L 12.174219 31.791 L 12.451562 31.474594 L 12.728906 31.162094 L 13.002344 30.849594 L 13.279687 30.541 L 13.557031 30.236312 L 14.111719 29.63475 L 14.389062 29.341781 L 14.6625 29.048812 L 14.939844 28.755844 L 15.494531 28.185531 L 15.771875 27.904281 L 16.049219 27.626937 L 16.322656 27.349594 L 16.6 27.076156 L 16.877344 26.806625 L 17.432031 26.275375 L 17.709375 26.013656 L 17.982812 25.751937 L 18.260156 25.494125 L 18.5375 25.240219 L 19.092187 24.740219 L 19.369531 24.494125 L 19.642969 24.248031 L 19.920312 24.005844 L 20.475 23.529281 L 21.029687 23.060531 L 21.303125 22.830062 L 21.857812 22.376937 L 22.4125 21.931625 L 22.689844 21.712875 L 22.963281 21.498031 L 23.517969 21.068344 L 23.795312 20.861312 L 24.072656 20.650375 L 24.35 20.44725 L 24.623437 20.240219 L 24.900781 20.041 L 25.178125 19.837875 L 25.455469 19.642562 L 25.732812 19.443344 L 26.010156 19.251937 L 26.283594 19.060531 L 26.560937 18.869125 L 27.115625 18.494125 L 27.670312 18.126937 L 27.94375 17.943344 L 28.221094 17.767562 L 28.498437 17.587875 L 28.775781 17.412094 L 29.330469 17.068344 L 29.603906 16.896469 L 30.158594 16.560531 L 30.990625 16.068344 L 31.264062 15.908187 L 31.541406 15.751937 L 31.81875 15.591781 L 32.096094 15.439437 L 32.373437 15.283187 L 32.646875 15.130844 L 32.924219 14.9785 L 33.478906 14.681625 L 34.033594 14.392562 L 34.307031 14.248031 L 34.584375 14.1035 L 34.861719 13.962875 L 35.139062 13.826156 L 35.416406 13.685531 L 35.69375 13.548812 L 35.967187 13.416 L 36.244531 13.279281 L 36.521875 13.146469 L 37.353906 12.75975 L 37.627344 12.630844 L 38.459375 12.255844 L 39.014062 12.013656 L 39.2875 11.892562 L 40.396875 11.423812 L 40.674219 11.310531 L 40.947656 11.19725 L 41.225 11.087875 L 41.502344 10.974594 L 42.057031 10.755844 L 42.334375 10.650375 L 42.607812 10.544906 L 43.1625 10.333969 L 43.994531 10.029281 L 44.267969 9.927719 L 45.377344 9.537094 L 45.654687 9.443344 L 45.928125 9.349594 L 46.482812 9.162094 L 46.760156 9.07225 L 47.0375 8.9785 L 47.314844 8.888656 L 47.588281 8.802719 L 47.865625 8.712875 L 48.697656 8.455062 L 48.975 8.373031 L 49.248437 8.287094 L 50.080469 8.041 L 50.357812 7.962875 L 50.635156 7.880844 L 50.908594 7.802719 L 51.463281 7.646469 L 52.017969 7.498031 L 52.295312 7.419906 L 52.56875 7.345687 L 52.846094 7.275375 L 53.123437 7.201156 L 53.400781 7.130844 L 53.678125 7.056625 L 53.955469 6.986312 L 54.228906 6.919906 L 54.783594 6.779281 L 55.615625 6.580062 L 55.889062 6.513656 L 56.166406 6.44725 L 56.721094 6.32225 L 56.998437 6.255844 L 57.271875 6.193344 L 57.549219 6.13475 L 58.103906 6.00975 L 58.658594 5.892562 L 58.932031 5.833969 L 59.486719 5.716781 L 59.764062 5.662094 L 60.041406 5.6035 L 60.31875 5.548812 L 60.592187 5.494125 L 61.701562 5.275375 L 61.978906 5.224594 L 62.252344 5.169906 L 63.361719 4.966781 L 63.639062 4.919906 L 63.9125 4.869125 L 64.189844 4.82225 L 64.467187 4.771469 L 65.299219 4.630844 L 65.572656 4.583969 L 65.85 4.541 L 66.404687 4.44725 L 66.959375 4.361312 L 67.232812 4.318344 L 68.342187 4.146469 L 68.619531 4.107406 L 68.892969 4.064437 L 69.170312 4.025375 L 69.447656 3.982406 L 70.279687 3.865219 L 70.553125 3.826156 L 70.830469 3.791 L 71.385156 3.712875 L 71.6625 3.677719 L 71.939844 3.638656 L 72.213281 3.6035 L 73.6 3.427719 L 73.873437 3.392562 L 74.150781 3.357406 L 74.428125 3.326156 L 74.705469 3.291 L 75.260156 3.2285 L 75.533594 3.193344 L 76.920312 3.037094 L 77.19375 3.00975 L 77.748437 2.94725 L 78.025781 2.919906 L 78.303125 2.888656 L 78.580469 2.861312 L 78.853906 2.833969 L 79.13125 2.802719 L 79.963281 2.720687 L 80.236719 2.693344 L 80.791406 2.638656 L 81.06875 2.615219 L 81.623437 2.560531 L 81.896875 2.537094 L 82.174219 2.50975 L 82.728906 2.462875 " transform="matrix(1, 0, 0, -1, 187.275, 99.791)"/>
</g>
<g fill="rgb(0%, 0%, 0%)" fill-opacity="1">
<use xlink:href="#glyph-0-4" x="263.149" y="95.856"/>
</g>
<g fill="rgb(0%, 0%, 0%)" fill-opacity="1">
<use xlink:href="#glyph-0-5" x="191.11" y="53.62"/>
</g>
<g fill="rgb(0%, 0%, 0%)" fill-opacity="1">
<use xlink:href="#glyph-1-6" x="186.577" y="33.267"/>
<use xlink:href="#glyph-1-7" x="192.12619" y="33.267"/>
<use xlink:href="#glyph-1-8" x="197.007884" y="33.267"/>
</g>
<g fill="rgb(0%, 0%, 0%)" fill-opacity="1">
<use xlink:href="#glyph-1-1" x="202.248233" y="33.267"/>
<use xlink:href="#glyph-1-4" x="207.269403" y="33.267"/>
<use xlink:href="#glyph-1-9" x="212.669154" y="33.267"/>
<use xlink:href="#glyph-1-4" x="217.122454" y="33.267"/>
<use xlink:href="#glyph-1-10" x="222.522205" y="33.267"/>
<use xlink:href="#glyph-1-11" x="225.670399" y="33.267"/>
<use xlink:href="#glyph-1-12" x="228.370275" y="33.267"/>
<use xlink:href="#glyph-1-2" x="232.923201" y="33.267"/>
<use xlink:href="#glyph-1-13" x="235.553338" y="33.267"/>
<use xlink:href="#glyph-1-14" x="238.641757" y="33.267"/>
<use xlink:href="#glyph-1-4" x="243.931918" y="33.267"/>
<use xlink:href="#glyph-1-15" x="249.331669" y="33.267"/>
<use xlink:href="#glyph-1-10" x="254.432541" y="33.267"/>
<use xlink:href="#glyph-1-11" x="257.580735" y="33.267"/>
<use xlink:href="#glyph-1-1" x="260.280611" y="33.267"/>
<use xlink:href="#glyph-1-4" x="265.301781" y="33.267"/>
</g>
<path fill="none" stroke-width="0.3985" stroke-linecap="butt" stroke-linejoin="miter" stroke="rgb(56.939697%, 57.174683%, 57.174683%)" stroke-opacity="1" stroke-miterlimit="10" d="M 20.683281 0.0019375 L 20.683281 54.380844 M 41.362969 0.0019375 L 41.362969 54.380844 M 62.046563 0.0019375 L 62.046563 54.380844 M 82.72625 0.0019375 L 82.72625 54.380844 " transform="matrix(1, 0, 0, -1, 343.18, 99.791)"/>
<path fill="none" stroke-width="0.3985" stroke-linecap="butt" stroke-linejoin="miter" stroke="rgb(56.939697%, 57.174683%, 57.174683%)" stroke-opacity="1" stroke-miterlimit="10" d="M -0.0003125 2.470687 L 82.72625 2.470687 M -0.0003125 14.830062 L 82.72625 14.830062 M -0.0003125 39.548812 L 82.72625 39.548812 M -0.0003125 51.908187 L 82.72625 51.908187 " transform="matrix(1, 0, 0, -1, 343.18, 99.791)"/>
<path fill="none" stroke-width="0.19925" stroke-linecap="butt" stroke-linejoin="miter" stroke="rgb(50%, 50%, 50%)" stroke-opacity="1" stroke-miterlimit="10" d="M 20.683281 25.064437 L 20.683281 29.314437 M 41.362969 25.064437 L 41.362969 29.314437 M 62.046563 25.064437 L 62.046563 29.314437 M 82.72625 25.064437 L 82.72625 29.314437 " transform="matrix(1, 0, 0, -1, 343.18, 99.791)"/>
<path fill="none" stroke-width="0.19925" stroke-linecap="butt" stroke-linejoin="miter" stroke="rgb(50%, 50%, 50%)" stroke-opacity="1" stroke-miterlimit="10" d="M -2.125312 2.470687 L 2.124688 2.470687 M -2.125312 14.830062 L 2.124688 14.830062 M -2.125312 39.548812 L 2.124688 39.548812 M -2.125312 51.908187 L 2.124688 51.908187 " transform="matrix(1, 0, 0, -1, 343.18, 99.791)"/>
<path fill="none" stroke-width="0.79701" stroke-linecap="butt" stroke-linejoin="miter" stroke="rgb(0%, 0%, 0%)" stroke-opacity="1" stroke-miterlimit="10" d="M -0.0003125 27.189437 L 80.136406 27.189437 " transform="matrix(1, 0, 0, -1, 343.18, 99.791)"/>
<path fill-rule="nonzero" fill="rgb(0%, 0%, 0%)" fill-opacity="1" d="M 425.90625 72.601562 L 421.761719 70.527344 L 423.316406 72.601562 L 421.761719 74.671875 "/>
<path fill="none" stroke-width="0.79701" stroke-linecap="butt" stroke-linejoin="miter" stroke="rgb(0%, 0%, 0%)" stroke-opacity="1" stroke-miterlimit="10" d="M -0.0003125 0.0019375 L -0.0003125 51.791 " transform="matrix(1, 0, 0, -1, 343.18, 99.791)"/>
<path fill-rule="nonzero" fill="rgb(0%, 0%, 0%)" fill-opacity="1" d="M 343.179688 45.410156 L 341.109375 49.554688 L 343.179688 48 L 345.253906 49.554688 "/>
<g fill="rgb(0%, 0%, 0%)" fill-opacity="1">
<use xlink:href="#glyph-2-0" x="361.801" y="81.554"/>
</g>
<path fill="none" stroke-width="0.648" stroke-linecap="butt" stroke-linejoin="miter" stroke="rgb(0%, 0%, 0%)" stroke-opacity="1" stroke-miterlimit="10" d="M -0.00021875 -0.00040625 L 4.120875 -0.00040625 " transform="matrix(1, 0, 0, -1, 361.801, 84.941)"/>
<g fill="rgb(0%, 0%, 0%)" fill-opacity="1">
<use xlink:href="#glyph-2-1" x="362.24" y="93.011"/>
</g>
<g fill="rgb(0%, 0%, 0%)" fill-opacity="1">
<use xlink:href="#glyph-0-9" x="381.599" y="82.836"/>
</g>
<g fill="rgb(0%, 0%, 0%)" fill-opacity="1">
<use xlink:href="#glyph-2-2" x="401.543" y="82.816"/>
<use xlink:href="#glyph-2-0" x="404.78584" y="82.816"/>
</g>
<path fill="none" stroke-width="0.648" stroke-linecap="butt" stroke-linejoin="miter" stroke="rgb(0%, 0%, 0%)" stroke-opacity="1" stroke-miterlimit="10" d="M -0.00003125 -0.000125 L 7.36325 -0.000125 " transform="matrix(1, 0, 0, -1, 401.543, 86.203)"/>
<g fill="rgb(0%, 0%, 0%)" fill-opacity="1">
<use xlink:href="#glyph-2-1" x="403.604" y="94.273"/>
</g>
<g fill="rgb(0%, 0%, 0%)" fill-opacity="1">
<use xlink:href="#glyph-0-1" x="420.646" y="84.639"/>
<use xlink:href="#glyph-0-9" x="425.278628" y="84.639"/>
</g>
<g fill="rgb(0%, 0%, 0%)" fill-opacity="1">
<use xlink:href="#glyph-0-0" x="327.107" y="100.338"/>
<use xlink:href="#glyph-0-2" x="332.586452" y="100.338"/>
</g>
<g fill="rgb(0%, 0%, 0%)" fill-opacity="1">
<use xlink:href="#glyph-0-0" x="320.283" y="87.949"/>
<use xlink:href="#glyph-0-6" x="325.762452" y="87.949"/>
<use xlink:href="#glyph-0-7" x="330.39508" y="87.949"/>
<use xlink:href="#glyph-0-8" x="332.58686" y="87.949"/>
</g>
<g fill="rgb(0%, 0%, 0%)" fill-opacity="1">
<use xlink:href="#glyph-0-6" x="325.762" y="63.231"/>
<use xlink:href="#glyph-0-7" x="330.394628" y="63.231"/>
<use xlink:href="#glyph-0-8" x="332.586408" y="63.231"/>
</g>
<g fill="rgb(0%, 0%, 0%)" fill-opacity="1">
<use xlink:href="#glyph-0-2" x="332.587" y="50.902"/>
</g>
<g clip-path="url(#clip-3)">
<path fill="none" stroke-width="1.59404" stroke-linecap="butt" stroke-linejoin="miter" stroke="rgb(0%, 35.293579%, 58.036804%)" stroke-opacity="1" stroke-miterlimit="10" d="M -0.0003125 27.189437 L 0.831719 28.748031 L 1.105156 29.267562 L 1.937188 30.814437 L 2.491875 31.837875 L 2.765313 32.345687 L 3.042656 32.8535 L 3.597344 33.861312 L 4.152031 34.8535 L 4.425469 35.345687 L 4.702813 35.833969 L 4.980156 36.318344 L 5.2575 36.798812 L 5.534844 37.275375 L 5.812188 37.748031 L 6.085625 38.216781 L 6.362969 38.677719 L 6.640313 39.13475 L 6.917656 39.587875 L 7.195 40.033187 L 7.472344 40.474594 L 7.745781 40.908187 L 8.023125 41.337875 L 8.300469 41.763656 L 8.577813 42.177719 L 8.855156 42.587875 L 9.1325 42.990219 L 9.405938 43.38475 L 9.683281 43.775375 L 9.960625 44.158187 L 10.237969 44.529281 L 10.515313 44.896469 L 10.792656 45.255844 L 11.066094 45.607406 L 11.343438 45.94725 L 11.620781 46.283187 L 11.898125 46.607406 L 12.175469 46.923812 L 12.452813 47.232406 L 12.72625 47.533187 L 13.003594 47.82225 L 13.280938 48.107406 L 13.558281 48.376937 L 13.835625 48.638656 L 14.112969 48.892562 L 14.386406 49.138656 L 14.66375 49.373031 L 14.941094 49.595687 L 15.218438 49.810531 L 15.495781 50.013656 L 15.769219 50.208969 L 16.046563 50.392562 L 16.323906 50.568344 L 16.60125 50.732406 L 16.878594 50.88475 L 17.155938 51.025375 L 17.429375 51.158187 L 17.706719 51.279281 L 17.984063 51.392562 L 18.261406 51.494125 L 18.53875 51.583969 L 18.816094 51.662094 L 19.089531 51.7285 L 19.366875 51.787094 L 19.644219 51.833969 L 19.921563 51.869125 L 20.198906 51.892562 L 20.47625 51.904281 L 20.749688 51.908187 L 21.027031 51.900375 L 21.304375 51.880844 L 21.581719 51.849594 L 21.859063 51.810531 L 22.136406 51.75975 L 22.409844 51.69725 L 22.687188 51.623031 L 22.964531 51.537094 L 23.241875 51.443344 L 23.519219 51.337875 L 23.796563 51.220687 L 24.07 51.095687 L 24.347344 50.958969 L 24.624688 50.810531 L 24.902031 50.650375 L 25.179375 50.482406 L 25.456719 50.302719 L 25.730156 50.115219 L 26.0075 49.916 L 26.284844 49.705062 L 26.562188 49.486312 L 26.839531 49.255844 L 27.116875 49.017562 L 27.390313 48.767562 L 27.667656 48.50975 L 27.945 48.244125 L 28.222344 47.966781 L 28.499688 47.681625 L 28.777031 47.38475 L 29.050469 47.080062 L 29.327813 46.767562 L 29.605156 46.44725 L 29.8825 46.115219 L 30.159844 45.779281 L 30.437188 45.431625 L 30.710625 45.076156 L 30.987969 44.716781 L 31.265313 44.345687 L 31.542656 43.966781 L 31.82 43.580062 L 32.097344 43.189437 L 32.370781 42.791 L 32.648125 42.38475 L 32.925469 41.970687 L 33.202813 41.552719 L 33.480156 41.126937 L 33.7575 40.693344 L 34.030938 40.255844 L 34.308281 39.810531 L 34.585625 39.361312 L 34.862969 38.908187 L 35.140313 38.44725 L 35.417656 37.982406 L 35.691094 37.513656 L 36.245781 36.560531 L 36.800469 35.591781 L 37.077813 35.099594 L 37.35125 34.607406 L 38.183281 33.107406 L 38.737969 32.091781 L 39.011406 31.583969 L 39.28875 31.068344 L 39.566094 30.556625 L 40.120781 29.525375 L 40.398125 29.005844 L 40.671563 28.490219 L 42.058281 25.892562 L 42.331719 25.373031 L 43.441094 23.310531 L 43.718438 22.798812 L 43.991875 22.287094 L 44.269219 21.779281 L 44.823906 20.771469 L 45.10125 20.271469 L 45.378594 19.775375 L 45.652031 19.279281 L 46.206719 18.302719 L 46.761406 17.341781 L 47.034844 16.869125 L 47.312188 16.400375 L 47.589531 15.935531 L 47.866875 15.474594 L 48.144219 15.017562 L 48.421563 14.568344 L 48.695 14.126937 L 48.972344 13.689437 L 49.249688 13.255844 L 49.527031 12.830062 L 49.804375 12.412094 L 50.081719 11.998031 L 50.355156 11.591781 L 50.6325 11.193344 L 50.909844 10.798812 L 51.187188 10.412094 L 51.464531 10.037094 L 51.741875 9.666 L 52.015313 9.302719 L 52.292656 8.94725 L 52.57 8.6035 L 52.847344 8.263656 L 53.124688 7.935531 L 53.402031 7.611312 L 53.675469 7.298812 L 53.952813 6.998031 L 54.230156 6.701156 L 54.5075 6.416 L 54.784844 6.138656 L 55.062188 5.869125 L 55.335625 5.611312 L 55.612969 5.365219 L 55.890313 5.123031 L 56.167656 4.896469 L 56.445 4.677719 L 56.722344 4.466781 L 56.995781 4.267562 L 57.273125 4.080062 L 57.550469 3.900375 L 57.827813 3.7285 L 58.105156 3.57225 L 58.3825 3.423812 L 58.655938 3.287094 L 58.933281 3.158187 L 59.210625 3.044906 L 59.487969 2.935531 L 59.765313 2.841781 L 60.042656 2.75975 L 60.316094 2.685531 L 60.593438 2.623031 L 60.870781 2.57225 L 61.148125 2.529281 L 61.425469 2.498031 L 61.702813 2.4785 L 61.97625 2.470687 L 62.253594 2.474594 L 62.530938 2.490219 L 62.808281 2.513656 L 63.085625 2.548812 L 63.362969 2.595687 L 63.636406 2.650375 L 63.91375 2.720687 L 64.191094 2.798812 L 64.468438 2.888656 L 64.745781 2.990219 L 65.023125 3.099594 L 65.296563 3.220687 L 65.573906 3.3535 L 65.85125 3.498031 L 66.128594 3.650375 L 66.405938 3.814437 L 66.683281 3.986312 L 66.956719 4.169906 L 67.234063 4.365219 L 67.511406 4.57225 L 67.78875 4.783187 L 68.066094 5.00975 L 68.343438 5.244125 L 68.616875 5.486312 L 68.894219 5.740219 L 69.171563 6.001937 L 69.448906 6.275375 L 69.72625 6.556625 L 70.003594 6.845687 L 70.277031 7.146469 L 70.554375 7.455062 L 70.831719 7.771469 L 71.109063 8.099594 L 71.386406 8.431625 L 71.66375 8.775375 L 71.937188 9.126937 L 72.214531 9.482406 L 72.491875 9.849594 L 72.769219 10.224594 L 73.046563 10.607406 L 73.323906 10.994125 L 73.597344 11.388656 L 74.152031 12.201156 L 74.429375 12.619125 L 74.706719 13.041 L 74.984063 13.470687 L 75.2575 13.904281 L 75.534844 14.345687 L 76.089531 15.244125 L 76.644219 16.166 L 76.917656 16.63475 L 77.195 17.1035 L 77.472344 17.580062 L 77.749688 18.060531 L 78.027031 18.544906 L 78.300469 19.037094 L 78.577813 19.525375 L 78.855156 20.021469 L 79.409844 21.021469 L 79.687188 21.529281 L 79.960625 22.033187 L 80.237969 22.544906 L 80.515313 23.052719 L 81.347344 24.599594 L 81.620781 25.115219 L 81.898125 25.63475 L 82.175469 26.150375 L 82.730156 27.189437 " transform="matrix(1, 0, 0, -1, 343.18, 99.791)"/>
</g>
<g fill="rgb(0%, 0%, 0%)" fill-opacity="1">
<use xlink:href="#glyph-0-4" x="419.052" y="68.666"/>
</g>
<g fill="rgb(0%, 0%, 0%)" fill-opacity="1">
<use xlink:href="#glyph-0-5" x="347.015" y="53.62"/>
</g>
<g fill="rgb(0%, 0%, 0%)" fill-opacity="1">
<use xlink:href="#glyph-1-16" x="355.916" y="35.469"/>
<use xlink:href="#glyph-1-11" x="360.74788" y="35.469"/>
<use xlink:href="#glyph-1-4" x="363.447756" y="35.469"/>
<use xlink:href="#glyph-1-14" x="368.847507" y="35.469"/>
<use xlink:href="#glyph-1-17" x="374.137669" y="35.469"/>
<use xlink:href="#glyph-1-13" x="378.023098" y="35.469"/>
<use xlink:href="#glyph-1-14" x="381.111517" y="35.469"/>
<use xlink:href="#glyph-1-4" x="386.401678" y="35.469"/>
<use xlink:href="#glyph-1-15" x="391.801429" y="35.469"/>
<use xlink:href="#glyph-1-10" x="396.902301" y="35.469"/>
<use xlink:href="#glyph-1-11" x="400.050495" y="35.469"/>
<use xlink:href="#glyph-1-1" x="402.750371" y="35.469"/>
<use xlink:href="#glyph-1-4" x="407.771541" y="35.469"/>
</g>
</svg>
